<?xml version="1.0" standalone="no"?>
<!DOCTYPE svg PUBLIC "-//W3C//DTD SVG 20010904//EN"
 "http://www.w3.org/TR/2001/REC-SVG-20010904/DTD/svg10.dtd">
<svg version="1.0" xmlns="http://www.w3.org/2000/svg"
 width="500.000000pt" height="500.000000pt" viewBox="0 0 500.000000 500.000000"
 preserveAspectRatio="xMidYMid meet">

<g transform="translate(0.000000,500.000000) scale(0.100000,-0.100000)"
fill="#000000" stroke="none">
<path d="M3588 4477 c-61 -51 -85 -146 -64 -252 l8 -40 13 41 c6 22 31 81 54
132 55 119 50 171 -11 119z"/>
<path d="M3168 4312 c-22 -7 -61 -25 -86 -39 -26 -15 -56 -31 -67 -37 -11 -6
-23 -15 -27 -21 -4 -5 -8 -7 -8 -3 0 4 -33 -8 -72 -28 -40 -20 -82 -40 -93
-44 -114 -47 -120 -52 -101 -63 56 -35 120 -105 81 -91 -8 4 -15 10 -15 16 0
5 -4 7 -9 3 -5 -3 -12 -1 -16 5 -4 6 -11 8 -16 4 -5 -3 -8 -1 -7 4 2 6 -1 10
-6 10 -5 0 -13 7 -18 16 -5 9 -13 14 -18 11 -5 -3 -24 2 -42 12 -33 17 -58 25
-58 18 0 -2 31 -24 68 -48 79 -51 124 -103 98 -113 -9 -3 -14 -9 -12 -13 3 -4
-4 -7 -14 -7 -21 0 -35 22 -20 31 6 4 10 1 10 -4 0 -6 5 -11 11 -11 5 0 7 4 4
10 -4 6 1 7 12 3 16 -6 17 -5 3 11 -9 12 -16 14 -18 6 -3 -7 -14 -3 -31 12
-20 18 -22 19 -9 2 20 -23 7 -47 -19 -37 -12 5 -14 1 -8 -18 7 -22 7 -23 -11
-9 -18 14 -18 14 -5 -2 7 -10 17 -15 22 -12 5 3 9 0 9 -6 0 -6 5 -8 11 -4 8 4
7 9 -2 15 -11 6 -11 11 -1 21 12 12 13 10 16 -34 2 -26 1 -26 -27 -11 -16 8
-44 15 -63 16 -32 2 -58 27 -35 35 6 2 11 9 11 17 0 7 7 18 15 25 9 7 14 19
11 25 -2 7 0 17 4 21 5 5 5 15 -1 24 -9 13 -10 12 -6 -2 3 -9 3 -18 -1 -20
-11 -5 -192 -235 -237 -301 -24 -34 -50 -60 -64 -64 -33 -8 -89 13 -131 51
-68 61 -84 69 -26 12 94 -91 148 -111 201 -74 31 21 69 71 63 83 -2 2 7 12 20
20 13 10 19 21 15 28 -4 7 1 6 10 -2 15 -12 17 -12 11 3 -3 9 -1 16 5 16 6 0
11 5 11 11 0 5 -6 7 -12 3 -8 -4 -10 -3 -5 2 5 5 13 9 18 9 5 0 10 5 10 10 1
6 10 16 19 22 12 9 16 20 13 35 -3 13 -2 20 2 16 5 -4 14 -3 20 2 9 7 14 6 18
-4 4 -9 14 -12 25 -9 12 3 27 -3 39 -16 11 -12 35 -23 54 -25 40 -3 89 -27
141 -68 140 -109 322 -53 472 146 66 88 96 157 97 230 1 49 -3 73 -17 93 -10
16 -17 31 -16 36 1 4 -4 7 -12 7 -8 0 -18 5 -22 12 -5 7 -2 8 7 3 8 -5 11 -4
6 1 -5 5 -12 9 -15 10 -4 0 -20 6 -35 12 -34 14 -75 12 -129 -6z"/>
<path d="M3472 4160 c-4 -56 -55 -182 -97 -238 -42 -56 -151 -164 -190 -190
-11 -7 -6 -6 10 2 47 23 141 112 191 181 51 72 97 192 91 239 -3 25 -4 26 -5
6z"/>
<path d="M2165 4120 c-4 -6 -11 -8 -16 -4 -5 3 -8 0 -7 -8 2 -7 -3 -12 -10
-10 -8 1 -11 -2 -8 -7 4 -5 -3 -16 -15 -24 -11 -8 -16 -18 -11 -21 5 -3 26 14
47 39 20 25 34 45 31 45 -3 0 -8 -5 -11 -10z"/>
<path d="M3506 4083 c-4 -10 -4 -14 0 -10 4 4 16 0 26 -10 17 -15 18 -15 18 7
0 13 -3 20 -7 17 -3 -4 -12 -2 -18 3 -9 8 -15 6 -19 -7z"/>
<path d="M3515 4050 c-3 -6 -3 -16 1 -22 5 -9 2 -8 -9 1 -15 12 -17 12 -11 -4
6 -14 4 -16 -7 -10 -12 7 -12 6 -1 -7 10 -13 10 -18 1 -24 -8 -5 -10 -3 -4 7
6 11 5 12 -5 2 -8 -7 -15 -22 -17 -34 -3 -17 1 -20 14 -14 12 4 10 -1 -7 -17
-13 -13 -28 -22 -32 -20 -5 1 -8 -3 -8 -9 0 -6 7 -9 15 -6 8 4 17 1 21 -5 4
-7 3 -8 -4 -4 -7 4 -12 2 -12 -4 0 -6 -4 -8 -10 -5 -5 3 -10 -1 -10 -9 0 -9
-4 -16 -8 -16 -5 0 -15 -11 -22 -25 -7 -13 -17 -22 -21 -19 -5 3 -4 -7 1 -23
9 -24 8 -25 -3 -12 -11 15 -15 15 -32 2 -20 -16 -20 -16 0 -9 18 6 19 5 3 -7
-10 -8 -14 -18 -10 -22 4 -5 -2 -5 -12 -1 -16 6 -17 4 -6 -9 11 -13 11 -16 -1
-13 -8 2 -13 -2 -12 -8 1 -6 -9 -10 -22 -8 -14 1 -28 -3 -32 -8 -3 -6 -1 -8 4
-5 6 4 13 1 16 -6 3 -8 -3 -14 -16 -14 -11 -1 -24 -8 -28 -15 -5 -7 -9 -9 -9
-5 0 4 -10 2 -22 -5 -13 -7 -30 -12 -38 -13 -8 0 -15 -5 -15 -12 0 -6 -3 -15
-7 -19 -4 -4 -2 -14 5 -23 11 -14 10 -14 -5 -2 -16 12 -18 11 -18 -2 0 -8 6
-17 13 -20 6 -2 -7 -4 -30 -3 -22 0 -39 4 -37 8 2 4 14 5 25 3 27 -5 20 14
-12 34 -21 14 -22 14 -12 0 10 -12 8 -17 -6 -26 -16 -10 -18 -8 -17 10 1 15
-4 21 -14 18 -41 -10 -92 -3 -85 12 4 6 0 4 -8 -5 -14 -17 -62 -14 -51 3 3 5
-2 9 -11 9 -10 0 -13 5 -9 12 4 7 3 8 -5 4 -9 -6 -9 -11 0 -22 15 -19 -1 -18
-29 2 -17 12 -20 19 -12 33 5 10 7 20 5 23 -7 7 21 9 120 10 89 0 90 1 32 9
-39 6 -69 17 -89 34 -16 14 -35 22 -40 19 -6 -4 -8 -2 -5 3 4 6 -6 15 -21 21
-15 6 -36 13 -47 18 -37 13 -120 13 -150 0 -16 -8 -43 -20 -60 -27 -46 -20
-96 -59 -89 -70 3 -5 2 -8 -3 -7 -12 4 -61 -31 -67 -49 -4 -9 4 -23 19 -35 28
-22 33 -56 10 -64 -8 -3 -36 1 -62 10 -26 8 -59 17 -73 20 -45 7 -110 27 -155
46 l-45 19 16 -24 c12 -19 22 -23 40 -19 18 5 23 3 19 -8 -6 -16 32 -38 65
-38 11 0 20 -4 20 -10 0 -5 -3 -9 -8 -7 -4 1 -8 -1 -10 -5 -6 -21 1 -19 28 7
l30 29 -6 -34 c-4 -19 -13 -45 -21 -58 -12 -20 -12 -23 4 -29 55 -19 67 -60
27 -92 -29 -23 -40 -20 -104 22 l-45 30 28 -29 c27 -30 35 -58 19 -68 -19 -12
-100 45 -173 121 -67 70 -84 83 -112 83 -18 0 -47 4 -65 9 -29 9 -31 8 -22 -8
7 -15 18 -17 59 -13 49 4 51 3 96 -42 25 -26 53 -59 62 -74 10 -15 24 -31 31
-35 11 -7 11 -12 0 -25 -10 -14 -9 -14 8 1 21 17 21 17 28 -14 3 -17 4 -35 1
-40 -3 -4 12 -13 35 -20 46 -14 59 -39 36 -74 -21 -32 -32 -31 -89 5 -26 17
-51 30 -55 30 -5 0 -29 14 -55 30 -42 26 -46 28 -36 9 6 -12 19 -24 29 -26 10
-3 20 -13 23 -23 3 -10 23 -30 46 -44 68 -44 68 -108 -1 -114 -30 -3 -39 2
-57 27 -12 16 -38 35 -59 42 -20 6 -58 22 -84 35 -61 31 -64 30 -39 -8 11 -18
25 -32 31 -30 5 1 10 -5 10 -13 0 -14 3 -14 24 0 22 15 24 14 29 -4 3 -11 -1
-25 -9 -32 -18 -15 -7 -32 18 -26 15 4 17 3 8 -8 -18 -21 -3 -51 36 -74 47
-28 62 -62 40 -96 -9 -14 -24 -25 -34 -25 -42 0 -71 54 -46 87 22 30 16 34
-13 7 -24 -22 -28 -23 -47 -9 -12 8 -51 33 -87 54 -36 22 -72 47 -79 56 -7 9
-22 21 -33 27 -18 9 -18 8 3 -23 13 -19 31 -43 41 -54 17 -19 19 -24 19 -42 0
-3 9 2 20 12 28 25 38 10 16 -25 -17 -30 -17 -30 6 -30 22 0 24 -4 22 -44 -4
-92 -46 -117 -96 -55 -17 21 -38 41 -47 44 -9 3 -31 19 -49 36 -18 17 -70 62
-115 101 -45 38 -106 92 -135 121 -29 29 -52 48 -51 42 8 -29 -17 -55 -89 -93
-42 -22 -76 -45 -75 -50 1 -6 -7 -8 -17 -5 -15 4 -20 0 -20 -13 0 -11 4 -15 8
-9 4 6 23 11 42 12 19 2 70 21 112 43 43 22 85 40 93 40 9 0 27 -12 40 -26 14
-15 25 -25 25 -23 0 5 143 -137 173 -171 9 -11 14 -20 11 -20 -4 0 -1 -6 5
-13 6 -8 10 -16 8 -18 -1 -2 6 5 15 16 17 19 18 19 18 -25 0 -25 -4 -61 -10
-80 -14 -52 -18 -130 -6 -130 5 0 1 -7 -10 -16 -10 -8 -12 -12 -4 -8 13 7 13
5 2 -9 -8 -9 -11 -21 -7 -27 3 -5 1 -10 -4 -10 -6 0 -11 5 -11 12 0 17 -10 3
-15 -21 -2 -11 -6 -25 -10 -30 -3 -5 -1 -13 5 -16 8 -5 8 -11 0 -20 -8 -9 -8
-15 0 -20 15 -9 13 -188 -2 -204 -11 -12 -9 -13 7 -6 11 4 54 20 96 35 42 16
104 42 139 59 34 17 67 28 71 25 5 -3 9 -1 9 4 0 4 34 28 75 51 41 24 75 45
75 47 0 3 -9 0 -19 -6 -28 -14 -67 -12 -81 5 -6 8 -12 35 -12 60 0 31 -4 45
-13 45 -33 0 -15 90 21 104 15 6 43 -17 44 -36 0 -5 5 -8 11 -8 6 0 1 12 -10
27 -13 15 -19 34 -16 45 5 13 2 16 -9 12 -9 -3 -16 -12 -16 -20 0 -13 -13 -19
-33 -15 -5 1 -5 -4 -1 -11 4 -7 3 -9 -1 -5 -12 10 -15 38 -4 31 5 -3 9 1 9 8
0 9 3 9 10 -2 9 -13 10 -13 10 1 0 8 -6 21 -12 28 -11 10 -8 10 15 2 26 -10
28 -9 22 9 -5 15 -3 18 9 14 9 -3 12 -12 9 -22 -4 -12 2 -9 22 8 16 14 25 20
21 13 -3 -7 2 -14 14 -18 11 -4 34 -30 50 -58 40 -71 40 -120 -1 -170 -38 -46
-31 -48 15 -4 49 47 106 96 106 91 0 -2 8 4 18 14 31 29 72 62 78 62 3 0 44
30 92 66 139 105 145 109 154 106 5 -1 7 1 4 6 -3 5 55 39 129 76 74 38 135
70 135 73 0 3 -12 2 -27 -2 -23 -5 -25 -4 -14 9 7 9 18 13 24 9 5 -3 7 -1 3 5
-3 6 0 16 7 24 20 20 42 62 27 53 -13 -8 -50 22 -50 40 0 7 9 20 21 31 21 19
21 18 45 -9 13 -16 29 -25 35 -22 7 5 4 14 -7 27 -23 25 -7 53 30 53 18 -1 26
4 26 16 0 10 9 21 20 24 11 3 20 11 20 16 0 5 7 9 15 9 22 0 95 48 96 63 0 13
47 53 74 63 11 5 18 0 22 -15 4 -15 11 -20 21 -16 10 4 31 -10 59 -37 24 -23
43 -39 43 -35 0 4 12 -4 27 -18 29 -26 86 -35 98 -15 4 6 11 8 16 5 5 -4 9 -1
9 5 0 6 4 9 9 6 5 -4 22 7 37 24 20 21 31 26 36 17 6 -9 8 -9 8 1 0 7 21 35
47 62 52 53 53 57 58 150 3 50 2 57 -4 27 -16 -76 -24 -49 -18 67 l6 120 -28
-61 c-28 -58 -28 -63 -16 -100 15 -41 20 -129 8 -136 -5 -3 -8 25 -9 62 0 37
-5 75 -11 85 -9 16 -11 15 -28 -10 -9 -15 -29 -37 -43 -49 -24 -21 -25 -24
-14 -68 16 -60 15 -112 0 -125 -10 -8 -13 2 -15 45 -1 30 -4 66 -8 80 -6 25
-6 25 -26 7 -20 -18 -21 -18 -18 0 2 10 25 41 52 68 26 28 50 61 53 74 3 13 9
24 14 24 4 0 15 19 25 43 9 23 21 51 26 62 16 38 25 121 19 170 l-6 50 -13
-30 c-7 -16 -16 -52 -20 -80 -7 -46 -30 -106 -31 -77 0 6 -11 22 -25 33 -23
21 -24 23 -9 57 19 46 20 47 39 32 24 -20 29 -5 9 28 -17 30 -14 62 6 62 5 0
10 -15 10 -32 1 -25 3 -29 10 -17 10 17 2 59 -11 59 -5 0 -9 21 -9 48 0 36 -5
50 -20 59 -12 8 -21 9 -25 3z m-85 -244 c0 -2 -7 -7 -16 -10 -8 -3 -12 -2 -9
4 6 10 25 14 25 6z m79 -92 c12 -15 21 -34 21 -43 0 -22 -49 -101 -50 -79 0 9
-12 30 -26 47 -25 30 -25 31 -8 66 20 42 35 44 63 9z m-827 -11 c10 -9 18 -20
18 -25 0 -5 -7 -2 -16 6 -8 9 -20 16 -25 16 -18 0 -60 -50 -53 -62 4 -7 3 -8
-4 -4 -17 10 -15 47 5 68 20 22 51 23 75 1z m678 -28 c0 -2 -7 -5 -15 -9 -9
-3 -15 0 -15 9 0 9 6 12 15 9 8 -4 15 -7 15 -9z m-700 -10 c-7 -8 -19 -15 -26
-15 -8 0 -11 6 -8 15 4 8 15 15 26 15 17 0 18 -3 8 -15z m777 -47 c36 -39 34
-70 -8 -118 -17 -19 -26 -26 -21 -15 10 21 -5 55 -24 55 -5 0 -17 7 -27 14
-17 13 -16 16 13 50 18 20 35 36 39 36 4 0 17 -10 28 -22z m-263 -24 c3 -8 2
-12 -4 -9 -6 3 -10 10 -10 16 0 14 7 11 14 -7z m89 9 c-7 -2 -19 -2 -25 0 -7
3 -2 5 12 5 14 0 19 -2 13 -5z m-456 -14 c15 -6 80 -23 143 -39 106 -27 153
-35 253 -44 53 -5 55 -12 8 -36 -32 -16 -61 -21 -129 -22 -48 0 -100 2 -117 6
-170 40 -245 61 -245 68 0 5 -4 6 -10 3 -17 -11 -11 7 16 42 27 36 38 39 81
22z m-203 -20 c35 -27 47 -58 33 -84 -23 -44 -79 -61 -92 -27 -5 14 -4 15 6 5
33 -33 87 12 75 61 -5 19 -34 44 -40 34 -1 -2 -14 -17 -28 -35 -22 -27 -27
-30 -33 -15 -5 14 -7 14 -15 2 -7 -11 -12 -12 -20 -4 -12 12 3 63 23 76 22 14
64 8 91 -13z m-394 -3 c0 -11 -19 -15 -25 -6 -3 5 1 10 9 10 9 0 16 -2 16 -4z
m400 -55 c0 -10 -7 -24 -15 -31 -20 -17 -31 10 -15 39 12 24 30 19 30 -8z
m722 -20 c14 -11 42 -44 62 -74 30 -44 39 -67 43 -116 4 -45 3 -61 -7 -61 -8
0 -10 8 -7 21 6 23 -36 93 -48 81 -5 -4 -5 1 -2 11 5 14 0 21 -23 30 -16 6
-30 15 -30 19 0 4 -6 8 -12 8 -15 1 -58 35 -58 46 0 10 41 54 50 54 4 0 18 -9
32 -19z m-607 -11 c-3 -5 -16 -10 -28 -9 -21 0 -21 1 -2 9 28 12 37 12 30 0z
m68 -19 c8 -6 18 -8 21 -3 6 11 32 8 69 -7 17 -7 25 -15 21 -23 -5 -7 -3 -8 6
-3 7 4 16 2 21 -6 6 -11 14 -11 39 -2 26 10 30 9 30 -6 0 -13 -8 -17 -39 -15
-21 1 -44 5 -51 9 -9 5 -11 4 -6 -3 4 -8 -3 -16 -19 -22 -32 -12 -35 -12 -34
-2 3 18 -2 26 -10 13 -11 -17 -48 -6 -48 14 0 8 4 16 9 16 4 1 14 2 21 3 6 1
17 -1 22 -5 17 -11 42 -6 42 8 0 7 -4 13 -9 13 -4 0 -8 -4 -8 -10 0 -5 -5 -10
-11 -10 -5 0 -8 4 -5 9 3 5 -10 7 -29 5 -19 -1 -37 1 -40 7 -4 5 -12 9 -18 9
-8 0 -7 -4 2 -9 21 -14 23 -41 3 -37 -32 6 -72 26 -72 35 0 5 -9 8 -20 6 -11
-2 -20 0 -20 6 0 12 37 11 62 -2 15 -8 19 -8 14 0 -17 27 28 37 57 12z m767
-72 c0 -19 -7 -44 -15 -55 -13 -18 -14 -17 -6 11 4 17 7 39 5 50 -2 11 -5 36
-8 55 l-5 35 14 -30 c8 -16 14 -46 15 -66z m-820 12 c41 -16 98 -34 127 -42
29 -7 50 -15 49 -18 -2 -3 13 -7 34 -7 21 -1 46 -7 56 -13 17 -11 17 -11 -3
-6 -13 4 -23 2 -23 -3 0 -5 -27 -3 -61 5 -34 8 -64 11 -67 8 -3 -3 2 -5 12 -5
9 0 14 -4 11 -10 -3 -5 -2 -10 3 -10 15 0 8 -96 -8 -112 -19 -19 -41 -12 -33
10 5 14 3 15 -7 5 -11 -10 -11 -16 4 -32 16 -18 16 -19 -1 -25 -10 -4 -19 -2
-21 3 -2 6 -8 9 -12 6 -5 -3 -7 -12 -4 -19 3 -7 -2 -16 -12 -20 -14 -5 -15 -4
-4 9 10 12 10 15 -1 16 -10 0 -10 2 -2 5 16 7 -15 44 -37 44 -9 0 -2 10 18 26
36 29 44 51 11 33 -12 -6 -44 -19 -72 -29 -29 -10 -61 -21 -72 -25 -11 -4 -3
5 18 19 20 15 37 31 37 36 0 13 0 13 -65 -16 -36 -17 -63 -37 -76 -58 -10 -17
-19 -26 -19 -21 0 6 7 20 15 31 8 12 11 25 7 29 -4 5 -1 5 7 0 10 -6 12 -4 6
5 -6 10 -14 6 -32 -16 -12 -16 -23 -37 -23 -47 0 -11 -5 -15 -11 -11 -7 4 -7
-1 1 -16 6 -12 10 -30 7 -39 -3 -13 3 -18 24 -19 16 -1 29 2 29 8 0 5 5 10 11
10 5 0 7 -4 4 -10 -3 -5 -4 -10 -1 -10 2 0 13 -3 23 -7 16 -6 17 -5 3 12 -9
12 -10 16 -2 11 7 -4 25 3 43 18 17 14 35 26 40 26 12 0 12 -17 -1 -25 -6 -4
-8 -11 -5 -16 4 -5 1 -17 -4 -26 -6 -10 -11 -14 -11 -9 0 5 -7 2 -16 -5 -18
-15 -47 -22 -39 -9 3 4 -2 11 -11 14 -12 5 -15 2 -10 -9 3 -10 2 -13 -5 -10
-6 4 -17 -1 -24 -11 -8 -11 -15 -14 -15 -9 0 6 -5 3 -10 -5 -8 -13 -11 -13
-22 -1 -11 11 -11 13 1 6 9 -5 12 -4 7 3 -4 7 -2 12 5 12 7 0 10 3 7 6 -10 9
-49 -16 -43 -26 4 -6 -3 -7 -18 -1 -13 5 -29 6 -36 1 -15 -9 -71 10 -71 24 0
5 7 17 16 27 14 15 13 18 -15 27 -38 13 -39 17 -6 18 14 1 25 -3 25 -9 0 -7 5
-6 13 2 10 10 9 15 -5 25 -25 19 -22 23 12 21 25 -1 30 1 24 14 -11 27 -7 46
20 86 26 37 26 37 26 11 0 -18 -4 -25 -12 -20 -6 4 -8 3 -5 -3 10 -15 57 -3
57 14 0 13 -2 13 -17 2 -15 -13 -15 -12 -6 5 6 10 9 28 7 40 -3 12 -2 15 2 8
3 -6 10 -9 15 -6 6 3 16 0 24 -6 10 -9 19 -9 28 -3 6 6 20 9 29 8 9 -2 19 4
22 12 3 8 11 11 17 7 8 -4 9 -3 5 4 -5 9 -13 8 -30 -3 -21 -14 -24 -14 -29 0
-5 10 0 15 13 15 11 0 20 4 20 9 0 12 -39 10 -41 -1 -1 -4 -2 -13 -3 -20 -1
-12 -26 -25 -26 -13 0 3 8 17 17 32 12 18 13 25 4 22 -7 -3 -12 -8 -11 -13 1
-5 -4 -13 -12 -17 -27 -17 -27 -8 -1 22 24 26 29 28 39 15 10 -14 13 -14 28 2
9 10 13 23 9 28 -4 5 -1 3 7 -4 8 -7 15 -22 15 -34 0 -13 7 -22 18 -24 15 -2
16 0 6 12 -6 8 -9 17 -5 21 3 3 -2 16 -11 27 -18 21 -18 21 4 2 13 -10 20 -22
18 -26 -3 -4 3 -14 13 -21 14 -11 15 -11 5 1 -10 11 -9 16 5 27 16 12 16 13
-2 6 -12 -4 -17 -3 -13 4 4 6 0 13 -8 17 -18 7 -20 26 -2 26 6 0 46 -13 87
-29z m324 13 c26 0 41 -5 44 -15 2 -10 1 -11 -5 -2 -5 8 -14 9 -23 3 -9 -6
-20 -4 -29 3 -12 10 -13 9 -2 -11 7 -12 16 -20 22 -17 5 4 8 1 7 -7 -2 -7 3
-12 10 -10 8 1 11 -2 7 -8 -5 -8 -12 -7 -22 2 -9 7 -18 12 -20 11 -8 -7 -24
-2 -19 6 3 4 -1 17 -9 27 -8 10 -14 24 -15 29 0 7 3 7 8 0 4 -5 25 -10 46 -11z
m212 -26 c47 -44 89 -112 79 -128 -3 -6 -1 -10 4 -10 6 0 11 -3 11 -7 0 -5
-11 -8 -24 -8 -19 0 -22 3 -14 13 8 9 7 11 -5 7 -9 -4 -21 3 -31 17 -18 26
-21 17 -5 -15 11 -20 9 -19 -13 3 -13 14 -23 27 -22 28 5 8 -32 38 -40 34 -5
-3 -7 2 -3 11 3 9 3 16 -1 15 -11 -2 -42 13 -42 21 0 7 49 61 56 61 2 0 25
-19 50 -42z m-276 -8 c3 -1 8 -2 11 -2 4 1 5 -7 2 -18 -5 -18 -7 -18 -34 -4
-17 8 -29 10 -29 4 0 -5 -4 -10 -10 -10 -5 0 -10 6 -10 14 0 8 -6 16 -12 19
-7 2 7 3 32 2 25 -2 47 -4 50 -5z m-600 -25 c22 -14 40 -32 40 -40 0 -13 -3
-13 -20 -3 -24 15 -49 3 -66 -31 -17 -34 -20 -33 -22 8 -2 24 3 43 12 50 8 7
12 19 9 27 -7 20 2 18 47 -11z m524 -102 c-5 -14 -16 -28 -24 -30 -13 -4 -13
-3 0 6 8 6 11 11 6 11 -5 0 -2 7 5 17 11 13 11 17 1 20 -6 3 -9 9 -6 15 13 21
28 -11 18 -39z m-539 18 c-3 -6 -11 -11 -17 -11 -6 0 -6 6 2 15 14 17 26 13
15 -4z m589 10 c4 -5 -3 -7 -14 -4 -23 6 -26 13 -6 13 8 0 17 -4 20 -9z m-564
-47 c0 -2 -9 -4 -21 -4 -11 0 -18 4 -14 10 5 8 35 3 35 -6z m540 -8 c0 -2 -7
-7 -16 -10 -8 -3 -12 -2 -9 4 6 10 25 14 25 6z m420 -18 c0 -4 -4 -8 -9 -8 -6
0 -12 4 -15 8 -3 5 1 9 9 9 8 0 15 -4 15 -9z m-1085 -83 c7 -21 5 -30 -17 -51
-51 -51 -103 8 -70 79 l17 35 30 -18 c17 -10 34 -30 40 -45z m463 0 c3 -11 0
-15 -7 -10 -6 3 -9 10 -6 15 3 4 0 11 -5 13 -6 3 -5 4 2 3 7 -1 15 -11 16 -21z
m-33 5 c3 -6 -1 -7 -9 -4 -18 7 -21 14 -7 14 6 0 13 -4 16 -10z m7 -25 c3 0 9
-2 12 -5 3 -3 -8 -6 -23 -5 -19 0 -27 4 -24 12 3 7 10 10 17 6 6 -4 14 -8 18
-8z m-382 -46 c0 -5 -6 -9 -14 -9 -8 0 -16 -3 -19 -7 -2 -5 -3 -3 -1 3 1 6 -2
16 -8 22 -6 6 -1 8 16 5 14 -3 26 -9 26 -14z m446 -51 c9 -18 11 -28 4 -28 -6
0 -9 -4 -5 -9 9 -15 -11 -22 -40 -15 -14 4 -32 19 -41 37 -15 29 -15 30 13 53
31 25 37 22 69 -38z m-478 5 c-2 -5 7 -18 20 -31 12 -12 25 -35 28 -51 5 -22
10 -27 26 -23 11 2 16 8 11 11 -12 8 -43 54 -43 63 0 5 9 8 19 8 25 0 64 -49
57 -73 -2 -10 2 -21 10 -24 26 -10 27 5 4 42 l-23 37 29 -4 c25 -3 31 -10 42
-48 7 -25 17 -53 23 -62 5 -10 9 -28 10 -40 0 -22 1 -22 8 -3 9 21 -5 94 -20
110 -14 14 -11 45 6 45 25 0 29 1 43 12 20 17 38 -7 52 -72 15 -70 10 -80 -54
-104 -25 -9 -51 -28 -60 -41 -9 -13 -43 -40 -76 -59 -66 -39 -79 -43 -61 -23
8 10 6 24 -9 55 -11 23 -20 45 -20 50 0 5 -11 15 -25 22 -13 7 -21 18 -18 23
4 6 0 8 -11 4 -13 -5 -22 6 -42 48 l-26 54 21 22 c20 21 22 21 39 5 11 -9 28
-33 38 -53 27 -52 66 -91 60 -60 -6 26 -18 47 -26 42 -9 -5 -43 48 -55 85 -5
15 -2 25 6 31 17 11 20 11 17 2z m392 -45 c16 -29 30 -56 30 -60 0 -4 -10 -14
-22 -22 -24 -15 -57 -25 -57 -16 1 3 -11 28 -25 56 -14 29 -26 57 -26 62 0 9
40 29 62 31 4 1 21 -23 38 -51z m-484 -85 c15 -27 44 -66 65 -88 22 -24 42
-58 49 -84 10 -39 9 -47 -7 -69 -30 -40 -40 -37 -47 17 -3 27 -13 54 -21 61
-8 7 -15 18 -15 26 0 7 -7 17 -16 22 -9 5 -14 11 -13 13 2 2 -11 25 -29 51
-18 26 -32 50 -32 54 0 7 30 44 36 44 2 0 15 -21 30 -47z m-36 -87 c14 -24 38
-59 53 -79 37 -46 46 -101 22 -127 -20 -23 -37 -26 -33 -7 4 23 -13 85 -27 97
-12 10 -13 7 -4 -22 20 -62 15 -103 -16 -133 -28 -29 -45 -32 -45 -9 0 39 -25
96 -62 140 -27 33 -38 55 -36 72 4 36 21 37 41 2 12 -20 26 -30 43 -30 34 0
30 16 -6 24 -35 6 -48 30 -32 57 9 13 8 19 -1 22 -7 3 6 3 28 1 36 -4 37 -3
18 7 -25 13 -31 54 -10 62 13 5 30 -13 67 -77z m-127 50 c7 -18 -18 -42 -28
-26 -4 6 -1 9 7 8 8 -2 12 4 10 15 -3 21 4 23 11 3z m-203 -86 c38 -38 16
-100 -35 -100 -39 0 -55 43 -35 94 12 32 42 34 70 6z m92 -61 c-3 -20 -8 -27
-14 -21 -6 6 -6 17 1 31 16 28 18 26 13 -10z m48 11 c0 -5 -4 -10 -10 -10 -5
0 -10 5 -10 10 0 6 5 10 10 10 6 0 10 -4 10 -10z m-245 -94 c0 -21 -6 -31 -23
-37 -16 -6 -21 -5 -16 2 4 7 -1 9 -15 4 -18 -5 -21 -2 -21 23 0 37 7 44 45 40
26 -3 30 -7 30 -32z m121 -68 c4 -7 3 -8 -4 -4 -7 4 -12 2 -12 -5 0 -7 -3 -10
-6 -6 -6 5 3 27 11 27 2 0 7 -5 11 -12z m-32 -17 c17 -11 34 -17 40 -14 5 4 7
-1 3 -10 -3 -10 -3 -17 2 -17 11 0 51 -93 51 -119 0 -11 -10 -27 -22 -36 -23
-15 -23 -14 -35 32 l-11 48 5 -51 c5 -49 4 -51 -25 -63 -40 -17 -52 -8 -52 40
0 21 -4 39 -10 39 -6 0 -10 -26 -10 -59 0 -59 0 -59 -36 -71 -47 -16 -50 -11
-59 110 -5 80 -4 104 9 129 30 58 98 76 150 42z m-174 -110 c0 -9 -52 -31 -73
-31 -5 0 -4 6 3 14 10 13 21 17 63 25 4 0 7 -3 7 -8z"/>
<path d="M2710 3380 c-9 -6 -10 -10 -3 -10 6 0 15 5 18 10 8 12 4 12 -15 0z"/>
<path d="M2706 3351 c-3 -5 2 -15 11 -22 14 -12 16 -12 8 0 -6 11 -4 13 10 7
15 -5 16 -4 5 9 -14 17 -26 19 -34 6z"/>
<path d="M2760 3356 c0 -2 14 -15 32 -27 17 -13 28 -18 25 -12 -4 6 -2 13 5
16 7 2 5 3 -4 2 -9 -2 -26 4 -37 12 -12 8 -21 12 -21 9z"/>
<path d="M2938 3323 c7 -3 16 -2 19 1 4 3 -2 6 -13 5 -11 0 -14 -3 -6 -6z"/>
<path d="M2742 3290 c14 -22 24 -25 33 -10 3 6 -1 10 -9 10 -9 0 -16 5 -16 10
0 6 -5 10 -10 10 -6 0 -5 -8 2 -20z"/>
<path d="M2838 3284 c2 -14 11 -24 21 -24 14 0 14 2 1 10 -13 8 -12 10 3 10
22 0 14 16 -11 22 -15 4 -18 1 -14 -18z"/>
<path d="M2634 3291 c15 -6 11 -10 -22 -25 -23 -10 -43 -25 -46 -32 -6 -16 17
-6 65 27 14 10 30 15 35 11 4 -4 2 1 -5 11 -7 9 -21 17 -30 16 -13 0 -13 -2 3
-8z"/>
<path d="M2675 3290 c3 -5 11 -10 16 -10 6 0 7 5 4 10 -3 6 -11 10 -16 10 -6
0 -7 -4 -4 -10z"/>
<path d="M2500 3281 c0 -5 7 -12 16 -15 24 -9 27 -7 10 9 -17 17 -26 19 -26 6z"/>
<path d="M2723 3275 c0 -8 4 -12 9 -9 5 3 6 10 3 15 -9 13 -12 11 -12 -6z"/>
<path d="M2836 3231 c-4 -5 3 -7 14 -4 23 6 26 13 6 13 -8 0 -17 -4 -20 -9z"/>
<path d="M2427 3223 c-4 -3 -7 -11 -7 -17 0 -6 5 -5 12 2 6 6 9 14 7 17 -3 3
-9 2 -12 -2z"/>
<path d="M2786 3201 c-3 -5 2 -15 12 -22 15 -12 16 -12 5 2 -7 9 -10 19 -6 22
3 4 4 7 0 7 -3 0 -8 -4 -11 -9z"/>
<path d="M2436 3181 c-11 -13 -14 -21 -7 -26 6 -3 11 1 11 10 0 11 5 15 15 11
8 -3 15 -1 15 4 0 18 -18 19 -34 1z"/>
<path d="M2450 3139 c0 -5 5 -7 10 -4 6 3 10 8 10 11 0 2 -4 4 -10 4 -5 0 -10
-5 -10 -11z"/>
<path d="M2410 3120 c-8 -5 -12 -12 -9 -15 4 -3 12 1 19 10 14 17 11 19 -10 5z"/>
<path d="M2454 3105 c1 -8 8 -21 16 -28 12 -10 12 -9 2 4 -6 9 -9 18 -6 21 3
3 1 9 -4 12 -6 3 -9 -1 -8 -9z"/>
<path d="M2631 3091 c-7 -5 -11 -13 -7 -19 3 -6 0 -12 -6 -15 -7 -2 -11 -7 -8
-10 3 -3 16 4 29 14 25 20 18 46 -8 30z"/>
<path d="M2383 3053 c-17 -6 -17 -20 0 -26 8 -3 13 3 13 14 0 11 0 19 -1 18 0
0 -6 -3 -12 -6z"/>
<path d="M2435 3040 c3 -5 8 -10 11 -10 2 0 4 5 4 10 0 6 -5 10 -11 10 -5 0
-7 -4 -4 -10z"/>
<path d="M2226 3114 c-19 -19 -21 -34 -3 -34 17 0 37 20 37 37 0 18 -15 16
-34 -3z"/>
<path d="M2750 2980 c0 -11 4 -20 9 -20 5 0 7 9 4 20 -3 11 -7 20 -9 20 -2 0
-4 -9 -4 -20z"/>
<path d="M2572 2890 c0 -14 2 -19 5 -12 2 6 2 18 0 25 -3 6 -5 1 -5 -13z"/>
<path d="M2422 2824 c-28 -19 -45 -59 -37 -85 11 -34 23 -20 18 20 -4 32 -1
42 18 54 33 24 44 9 14 -18 -27 -26 -31 -40 -15 -50 6 -3 14 5 20 19 11 31 20
35 13 6 -7 -28 21 -17 35 14 21 47 -21 72 -66 40z"/>
<path d="M2150 2650 c0 -17 17 -47 23 -40 2 3 -2 16 -10 30 -7 14 -13 18 -13
10z"/>
<path d="M1813 2723 c-17 -6 -16 -33 1 -33 17 0 38 24 29 33 -7 8 -12 8 -30 0z"/>
<path d="M1810 2496 c0 -2 8 -10 18 -17 15 -13 16 -12 3 4 -13 16 -21 21 -21
13z"/>
<path d="M1730 2415 c0 -5 5 -17 10 -25 5 -8 10 -10 10 -5 0 6 -5 17 -10 25
-5 8 -10 11 -10 5z"/>
<path d="M2064 4018 c-11 -12 -13 -18 -6 -14 6 4 12 3 12 -3 0 -5 -8 -15 -17
-20 -10 -6 -14 -11 -10 -11 5 0 1 -7 -7 -16 -9 -8 -13 -20 -10 -26 6 -10 14
-1 53 64 24 41 14 59 -15 26z"/>
<path d="M2202 4024 c-21 -14 -33 -42 -13 -29 14 8 61 -16 54 -28 -4 -6 -1 -7
7 -2 9 6 11 4 5 -5 -6 -9 -4 -11 6 -5 11 7 12 6 3 -6 -5 -8 -10 -26 -9 -41 0
-15 -2 -25 -6 -22 -4 2 -6 17 -4 32 3 30 -12 55 -28 45 -6 -4 -7 -1 -2 8 6 11
5 12 -5 2 -11 -10 -10 -16 4 -32 10 -11 16 -26 13 -33 -3 -8 -6 -6 -6 6 -1 12
-6 16 -15 13 -9 -4 -13 -1 -11 6 8 20 -10 38 -29 31 -21 -8 -18 -49 4 -49 8 0
17 -11 20 -25 4 -16 13 -25 25 -26 33 -1 69 -16 98 -40 46 -39 66 -10 25 34
l-23 24 25 -7 c39 -12 42 -11 45 8 4 20 -38 42 -62 33 -17 -7 -43 3 -43 17 0
7 4 7 12 -1 7 -7 16 -12 22 -12 5 0 -9 16 -32 36 -23 19 -42 39 -42 42 0 4 21
7 47 7 32 0 48 5 51 15 4 12 3 13 -10 2 -12 -10 -22 -9 -51 3 -45 19 -47 19
-75 -1z"/>
<path d="M2650 3966 c0 -3 9 -10 20 -16 11 -6 20 -8 20 -6 0 3 -9 10 -20 16
-11 6 -20 8 -20 6z"/>
<path d="M2603 3933 c4 -3 3 -11 -3 -17 -6 -8 -3 -12 10 -12 15 0 16 4 9 18
-5 10 -13 18 -16 18 -3 0 -3 -3 0 -7z"/>
<path d="M2001 3883 c0 -4 4 -17 9 -28 8 -19 9 -19 9 2 1 12 -3 25 -9 28 -5 3
-10 3 -9 -2z"/>
<path d="M2570 3853 c0 -5 5 -15 10 -23 7 -12 9 -10 7 8 -1 19 -17 33 -17 15z"/>
<path d="M2600 3840 c0 -5 7 -7 15 -4 8 4 15 8 15 10 0 2 -7 4 -15 4 -8 0 -15
-4 -15 -10z"/>
<path d="M1920 3786 c-13 -41 -9 -52 15 -43 16 7 20 44 6 66 -6 10 -12 3 -21
-23z"/>
<path d="M2050 3796 c0 -2 8 -10 18 -17 15 -13 16 -12 3 4 -13 16 -21 21 -21
13z"/>
<path d="M1830 3671 c0 -10 -7 -24 -15 -31 -8 -7 -12 -16 -9 -21 3 -5 -1 -9
-8 -9 -8 0 -6 -6 5 -17 17 -17 19 -17 43 10 23 27 23 30 9 58 -18 34 -25 37
-25 10z"/>
<path d="M3058 3683 c7 -3 16 -2 19 1 4 3 -2 6 -13 5 -11 0 -14 -3 -6 -6z"/>
<path d="M1945 3660 c3 -5 13 -10 21 -10 8 0 14 5 14 10 0 6 -9 10 -21 10 -11
0 -17 -4 -14 -10z"/>
<path d="M2835 3640 c3 -5 1 -10 -5 -10 -6 0 -8 -5 -4 -11 4 -8 9 -7 15 2 12
19 11 29 -2 29 -5 0 -7 -4 -4 -10z"/>
<path d="M3120 3610 c0 -7 -7 -10 -14 -7 -10 4 -13 1 -9 -9 7 -18 17 -18 32 0
8 10 9 16 1 21 -5 3 -10 1 -10 -5z"/>
<path d="M2080 3500 c17 -22 37 -43 43 -47 6 -4 -6 14 -27 40 -21 26 -40 47
-43 47 -3 0 10 -18 27 -40z"/>
<path d="M1673 3470 c-18 -28 -33 -54 -33 -59 0 -24 23 -20 56 8 19 17 42 31
50 31 11 0 14 6 10 16 -3 9 -6 24 -6 35 0 13 -7 19 -22 18 -16 0 -33 -15 -55
-49z"/>
<path d="M4365 3464 c-50 -66 -72 -173 -48 -233 11 -27 15 -23 33 34 7 22 30
73 51 113 44 83 51 132 19 132 -11 0 -34 -19 -55 -46z"/>
<path d="M3642 3361 c-6 -18 -9 -37 -6 -42 3 -5 0 -8 -8 -7 -7 2 -12 -5 -11
-15 0 -10 -1 -16 -4 -13 -4 3 -23 -10 -44 -29 -21 -19 -64 -49 -96 -67 -31
-17 -52 -33 -47 -35 5 -2 48 12 94 30 61 23 88 40 97 57 l13 25 0 -23 c0 -47
19 -10 25 52 9 83 3 113 -13 67z"/>
<path d="M1550 3364 c0 -11 -6 -26 -12 -32 -7 -7 -13 -16 -14 -20 0 -4 -4 -15
-9 -25 -5 -11 -3 -23 4 -30 10 -9 18 -5 38 18 15 17 30 29 35 28 13 -5 9 6
-17 45 -20 29 -25 32 -25 16z"/>
<path d="M3940 3329 c-25 -12 -51 -23 -58 -25 -8 -1 -21 -9 -31 -18 -9 -8 -48
-29 -86 -46 -145 -66 -169 -75 -228 -90 -26 -7 -50 -17 -53 -22 -3 -4 -10 -5
-16 -2 -7 4 -8 2 -4 -4 4 -6 40 -34 81 -62 40 -28 76 -58 79 -66 7 -17 -2 -13
-53 25 -19 14 -32 21 -28 14 5 -7 1 -9 -13 -6 -10 3 -18 10 -17 16 1 6 -5 11
-13 12 -8 1 -14 7 -12 15 2 10 0 11 -11 2 -10 -9 -18 -8 -35 3 -11 9 -23 11
-26 6 -3 -5 24 -29 61 -54 38 -24 76 -53 86 -64 16 -18 16 -21 3 -26 -19 -7
-58 31 -49 47 3 6 0 5 -8 -2 -12 -11 -12 -14 0 -22 12 -7 12 -11 2 -24 -7 -9
-18 -13 -23 -10 -6 4 -5 10 3 15 11 7 9 9 -6 10 -11 0 -14 3 -7 6 6 2 12 9 12
14 0 4 -7 6 -16 2 -10 -4 -14 -13 -10 -29 3 -12 2 -25 -2 -28 -12 -7 -14 55
-2 69 7 8 7 15 1 19 -5 3 -18 -9 -28 -27 -11 -17 -49 -69 -86 -115 -37 -45
-91 -117 -119 -159 -29 -41 -63 -80 -76 -86 -29 -13 -67 6 -174 89 -69 53
-109 75 -57 31 149 -125 173 -142 217 -150 37 -7 29 -13 142 109 30 32 55 63
55 68 0 5 8 10 18 12 27 4 30 10 17 36 l-11 23 19 -21 c17 -20 20 -20 46 -7
18 9 56 15 103 15 61 -1 84 -6 136 -31 129 -62 206 -64 315 -9 110 55 222 215
226 323 2 30 0 55 -3 55 -3 0 -6 18 -7 39 0 28 -10 50 -33 80 -41 51 -55 59
-122 66 -43 5 -63 1 -99 -16z m-430 -434 c-13 -15 -30 -12 -30 7 0 5 7 8 15 4
8 -3 15 0 15 6 0 6 3 8 6 5 4 -4 1 -13 -6 -22z m-41 -9 c10 -12 8 -13 -8 -9
-12 3 -21 9 -21 14 0 14 16 11 29 -5z m-62 -3 c-4 -3 -2 -12 4 -19 6 -7 6 -14
1 -18 -6 -3 -13 1 -16 10 -6 16 0 34 11 34 4 0 3 -3 0 -7z m58 -31 c-3 -3 -11
0 -18 7 -9 10 -8 11 6 5 10 -3 15 -9 12 -12z"/>
<path d="M1710 3295 c8 -9 30 -15 58 -15 25 0 43 3 40 6 -3 3 -24 5 -47 6 -23
0 -41 4 -41 9 0 5 -5 9 -11 9 -8 0 -8 -5 1 -15z"/>
<path d="M1820 3276 c0 -2 7 -7 16 -10 8 -3 12 -2 9 4 -6 10 -25 14 -25 6z"/>
<path d="M1412 3218 c-7 -7 -12 -18 -12 -25 0 -7 -4 -13 -9 -13 -15 0 -5 -35
11 -38 8 -2 21 4 28 13 7 8 19 15 26 15 20 0 17 14 -9 38 -18 17 -26 19 -35
10z"/>
<path d="M4268 3125 c-1 -30 0 -55 5 -55 4 0 7 25 7 55 0 71 -7 71 -12 0z"/>
<path d="M3000 3120 c-8 -5 -12 -12 -9 -15 4 -3 12 1 19 10 14 17 11 19 -10 5z"/>
<path d="M4334 3098 c-4 -13 -7 -29 -6 -35 2 -7 -7 -13 -20 -14 -13 0 -17 -3
-11 -6 10 -3 9 -8 -2 -20 -9 -8 -13 -23 -10 -33 3 -10 1 -21 -5 -25 -5 -3 -10
-15 -10 -26 0 -13 -4 -18 -12 -13 -8 5 -9 2 -5 -10 4 -10 -2 -25 -15 -38 -12
-12 -22 -29 -23 -37 -2 -26 -25 -62 -36 -56 -5 4 -8 1 -7 -5 2 -7 -6 -17 -17
-23 -11 -7 -25 -19 -32 -27 -7 -8 -13 -12 -13 -8 0 4 -13 -6 -28 -22 -16 -16
-32 -27 -36 -23 -4 4 -11 1 -16 -7 -9 -14 -26 -19 -73 -22 -21 -1 -27 -5 -22
-17 3 -11 0 -10 -10 3 -9 12 -15 15 -15 7 0 -10 -6 -9 -25 3 -14 9 -25 13 -24
9 4 -22 -3 -24 -20 -9 -18 16 -19 16 -17 0 0 -9 -6 -19 -14 -21 -13 -4 -13 -3
0 6 8 6 13 11 10 12 -3 0 -13 2 -22 4 -10 2 -21 -2 -25 -7 -4 -7 -1 -8 7 -3 8
5 11 4 6 -3 -4 -6 -13 -9 -21 -6 -8 4 -13 10 -10 14 3 4 -3 10 -13 12 -21 6
-26 35 -6 35 7 0 11 -4 8 -9 -3 -4 -1 -8 5 -8 5 0 13 5 17 11 3 6 17 9 30 6
14 -2 27 0 30 4 3 5 20 10 37 10 18 1 4 5 -30 10 -41 5 -87 21 -135 46 -40 21
-78 37 -85 35 -6 -1 -14 2 -18 8 -11 19 -98 11 -151 -14 -28 -13 -54 -28 -57
-33 -3 -5 19 3 50 19 38 19 71 28 102 28 37 -1 43 -3 28 -11 -10 -6 -21 -8
-24 -5 -6 6 -109 -31 -141 -52 -12 -8 -25 -12 -28 -9 -4 3 -28 -17 -55 -45
-30 -31 -52 -47 -60 -42 -8 4 -9 3 -5 -5 4 -6 2 -19 -5 -28 -11 -13 -9 -18 14
-35 45 -33 34 -43 -45 -43 -151 -1 -279 -8 -284 -16 -5 -8 12 -13 44 -12 6 1
12 -3 12 -7 0 -5 18 -11 41 -15 34 -6 44 -3 65 16 27 25 41 21 25 -9 -9 -17
-5 -24 24 -47 62 -47 32 -53 -140 -29 -22 4 -51 12 -65 18 -129 64 -142 68
-199 70 -46 1 -57 -2 -49 -11 6 -8 26 -11 51 -8 49 4 70 -5 120 -57 20 -21 37
-35 37 -31 0 5 6 1 13 -9 17 -22 50 -26 70 -9 15 12 17 11 17 -5 1 -11 19 -32
42 -47 55 -38 40 -55 -34 -39 -29 6 -84 13 -123 16 -38 2 -79 7 -90 12 -18 7
-19 6 -6 -10 8 -9 28 -26 44 -38 24 -17 33 -19 48 -10 22 14 24 9 9 -19 -8
-15 -7 -21 4 -25 8 -3 13 -11 10 -18 -3 -7 11 -25 31 -40 20 -15 34 -33 32
-39 -5 -16 -48 -18 -66 -3 -12 9 -13 8 -6 -4 8 -13 6 -13 -8 -2 -9 8 -47 18
-84 22 -46 6 -89 20 -138 45 -67 35 -69 36 -45 10 14 -15 42 -40 62 -57 31
-24 41 -27 58 -18 17 9 21 8 19 -2 -4 -31 3 -45 26 -58 30 -16 43 -49 24 -61
-19 -12 -86 -11 -134 2 -40 11 -228 101 -254 122 -9 8 -8 0 5 -21 11 -19 36
-41 59 -51 46 -21 117 -76 109 -84 -3 -3 4 -3 17 0 14 4 20 2 16 -4 -4 -6 8
-23 26 -37 l32 -27 -29 5 c-17 3 -35 1 -42 -5 -8 -7 -14 -7 -19 1 -3 5 -12 10
-18 10 -7 0 -4 -7 6 -15 11 -7 25 -11 33 -8 8 3 26 -2 40 -12 25 -16 26 -27 1
-31 -7 -1 -21 -6 -31 -10 -15 -6 -17 -4 -11 7 6 11 5 11 -5 2 -7 -6 -20 -9
-29 -5 -14 5 -14 3 2 -12 36 -36 10 -67 -52 -59 -53 7 -90 33 -331 236 -14 11
-48 42 -75 68 -49 47 -51 47 -50 21 0 -26 -19 -41 -142 -118 -10 -7 -15 -15
-10 -20 4 -4 44 7 90 26 129 51 139 49 255 -55 41 -37 131 -150 142 -180 l12
-30 15 30 c15 27 17 28 23 10 4 -11 3 -28 -2 -39 -7 -14 -7 -16 2 -11 9 5 10
2 3 -11 -5 -11 -9 -26 -8 -34 1 -8 -3 -24 -9 -35 -14 -29 -16 -45 -4 -45 6 0
3 -9 -6 -19 -13 -15 -14 -20 -4 -24 10 -4 10 -6 1 -6 -7 -1 -13 -6 -13 -12 0
-5 4 -8 8 -5 5 3 9 -1 9 -9 0 -8 -4 -12 -9 -9 -4 3 -8 0 -8 -5 0 -6 -7 -11
-16 -11 -9 0 -12 -5 -8 -12 12 -20 12 -48 0 -41 -6 4 -5 0 2 -9 11 -14 9 -18
-15 -26 -16 -6 -21 -11 -11 -11 9 -1 18 -7 21 -13 3 -10 7 -10 18 -2 8 6 28
14 44 18 17 4 38 9 48 12 9 3 17 2 17 -3 0 -4 -21 -15 -48 -23 -35 -11 -48
-20 -50 -37 -3 -22 -19 -28 -64 -24 -10 1 -18 -3 -18 -8 0 -6 11 -11 24 -11
30 0 66 -43 66 -79 0 -26 0 -26 -20 7 -29 46 -68 40 -118 -20 -36 -42 -51 -22
-24 33 15 29 18 47 12 58 -8 13 -9 12 -10 -6 0 -29 -20 -40 -33 -18 -9 17 -11
16 -29 -6 -17 -22 -18 -22 -9 -2 16 32 14 47 -5 29 -18 -18 -30 -20 -39 -6 -9
15 -25 12 -25 -5 0 -13 -4 -14 -20 -5 -19 10 -20 8 -21 -47 0 -32 -3 -52 -6
-45 -7 17 -34 15 -61 -4 l-22 -15 -1 73 c-1 72 -7 71 -23 -4 -5 -21 -12 -28
-30 -28 -14 0 -31 -7 -40 -15 -8 -8 -18 -15 -21 -15 -4 0 -4 35 0 78 7 71 6
75 -9 57 -8 -11 -18 -33 -21 -50 -5 -25 -11 -30 -38 -31 -20 -1 -36 -9 -45
-23 -8 -11 -18 -21 -23 -21 -16 0 -9 68 11 121 12 28 19 54 16 56 -7 7 -51
-65 -66 -109 -8 -20 -18 -36 -23 -35 -18 4 -18 -20 -1 -27 27 -11 183 -43 242
-51 42 -6 52 -10 52 -26 0 -23 -8 -23 -125 -4 -139 23 -273 61 -350 99 -38 20
-61 29 -50 20 62 -49 201 -103 375 -148 116 -30 95 -34 -33 -6 -121 27 -227
62 -308 103 -62 32 -80 30 -52 -4 5 -8 11 -36 12 -64 1 -59 10 -105 19 -105 4
0 5 38 2 84 -5 82 -4 84 15 74 26 -14 34 -23 15 -16 -12 5 -15 -3 -15 -34 1
-40 11 -54 60 -83 16 -10 22 -27 24 -76 1 -9 8 -20 17 -23 12 -5 14 -1 9 15
-6 19 -5 20 17 9 12 -7 31 -21 41 -31 24 -25 47 -24 47 2 l0 20 26 -20 c15
-12 33 -21 41 -21 8 0 11 -4 8 -10 -4 -6 18 -7 59 -3 60 5 65 4 76 -18 7 -13
18 -27 24 -31 19 -13 63 -9 76 7 14 17 67 10 89 -13 9 -9 23 -11 40 -7 14 4
53 6 86 4 99 -5 154 -3 167 9 7 5 40 9 73 7 39 -1 68 3 84 12 13 8 49 16 81
17 32 2 69 10 82 18 13 8 39 18 59 22 21 3 42 13 49 21 7 8 28 15 46 15 33 0
74 28 74 50 0 6 18 10 39 10 28 0 54 10 92 36 30 20 73 45 97 55 30 13 98 74
223 200 158 158 197 192 316 270 75 49 141 89 147 89 6 0 46 22 89 50 43 27
99 55 125 61 59 15 92 31 116 58 11 12 29 21 42 21 63 0 135 59 159 129 10 32
24 52 39 59 34 15 58 103 63 227 l5 100 -27 -52 c-14 -28 -33 -57 -42 -65 -9
-7 -1 11 17 40 35 57 50 146 32 192 -9 24 -10 23 -20 -20 -10 -42 -11 -40 -10
45 1 137 1 137 -35 71 -33 -62 -126 -170 -127 -148 0 6 4 12 9 12 8 0 54 66
55 80 1 3 11 20 24 38 13 17 21 32 17 32 -3 0 2 12 12 27 19 29 18 24 34 116
9 53 9 76 0 108 -16 53 -32 39 -36 -29 -2 -27 -7 -58 -13 -68 -7 -13 -9 -6 -5
28 3 26 1 48 -5 52 -7 4 -9 -5 -6 -24 6 -37 -9 -39 -24 -4 -16 33 1 72 24 54
11 -10 16 -7 24 15 14 36 13 58 -4 97 -8 18 -18 50 -21 71 -3 20 -9 37 -14 37
-4 0 -6 16 -5 35 4 40 -1 45 -12 13z m54 -192 c3 -12 -1 -17 -10 -14 -7 3 -15
13 -16 22 -3 12 1 17 10 14 7 -3 15 -13 16 -22z m-38 -255 c0 -15 -7 -36 -15
-47 -14 -19 -14 -18 -15 4 0 12 -9 30 -20 39 -24 21 -26 46 -3 41 9 -2 22 -19
29 -38 12 -34 13 -34 13 -7 1 15 -6 40 -15 55 l-16 27 21 -24 c12 -13 21 -35
21 -50z m-814 44 c18 -14 17 -14 -10 -5 -25 9 -34 8 -58 -10 -31 -23 -37 -17
-11 12 20 22 52 23 79 3z m-31 -25 c3 -5 -1 -10 -10 -10 -9 0 -13 5 -10 10 3
6 8 10 10 10 2 0 7 -4 10 -10z m386 -47 c13 -16 12 -17 -3 -4 -17 13 -22 21
-14 21 2 0 10 -8 17 -17z m-472 -52 c11 -7 7 -13 -17 -25 -17 -9 -38 -26 -46
-38 -14 -20 -16 -20 -22 -3 -9 22 5 46 37 62 29 15 30 15 48 4z m261 -6 c19
-7 28 -14 20 -14 -8 0 -28 6 -45 14 -39 17 -21 18 25 0z m147 -35 c26 -6 84
-14 128 -19 l80 -8 -65 -2 c-36 0 -81 3 -100 8 -19 6 -50 12 -68 15 -19 2 -36
7 -40 10 -8 9 11 7 65 -4z m576 -191 c-4 -4 -6 13 -3 39 l5 47 3 -39 c2 -21 0
-42 -5 -47z m-1177 49 c4 -6 -1 -17 -12 -25 -15 -11 -19 -11 -27 3 -14 25 24
46 39 22z m1123 -57 c1 -48 -5 -35 -12 24 -4 32 -3 43 3 30 5 -11 9 -35 9 -54z
m-208 42 c13 -16 12 -17 -3 -4 -17 13 -22 21 -14 21 2 0 10 -8 17 -17z m128
-33 c0 -10 -3 -8 -9 5 -12 27 -12 43 0 25 5 -8 9 -22 9 -30z m-756 -50 c-8
-30 -21 -34 -15 -5 2 14 8 25 12 25 5 0 6 -9 3 -20z m764 -2 c-3 -8 -6 -5 -6
6 -1 11 2 17 5 13 3 -3 4 -12 1 -19z m-788 8 c-14 -13 -70 -36 -64 -26 4 6 17
15 29 20 22 9 42 13 35 6z m145 -5 c3 -4 -1 -17 -9 -27 -13 -18 -14 -18 -8 3
l5 23 -58 -26 c-33 -15 -77 -33 -99 -40 l-40 -14 25 19 c13 11 28 18 31 15 4
-2 36 9 71 26 69 33 74 34 82 21z m-479 -31 c-3 -5 -11 -10 -17 -10 -5 0 -23
-9 -39 -21 -32 -23 -40 -8 -12 23 17 19 79 26 68 8z m235 -14 c0 -2 -8 -10
-17 -17 -16 -13 -17 -12 -4 4 13 16 21 21 21 13z m226 -21 c-3 -8 -1 -15 4
-15 6 0 10 -9 10 -20 0 -11 -2 -20 -4 -20 -2 0 -13 -3 -23 -6 -16 -6 -16 -5 2
10 20 16 20 16 -5 37 -14 11 -20 18 -13 15 6 -4 14 -2 18 4 10 15 18 12 11 -5z
m601 -37 c-3 -7 -5 -2 -5 12 0 14 2 19 5 13 2 -7 2 -19 0 -25z m-103 -10 c9
-12 16 -34 15 -48 -1 -23 -2 -22 -8 6 -12 48 -18 54 -47 44 -33 -13 -34 -13
-28 5 9 22 51 18 68 -7z m-34 -53 c0 -8 -4 -15 -9 -15 -13 0 -22 16 -14 24 11
11 23 6 23 -9z m-595 -15 c-20 -22 -42 -25 -65 -10 -11 7 -6 8 16 4 21 -4 34
-1 43 10 8 9 16 16 19 16 3 0 -3 -9 -13 -20z m-424 -36 c13 -16 12 -16 -8 -3
-19 11 -27 12 -44 1 -28 -18 -45 -2 -30 27 11 20 14 20 40 7 15 -8 34 -22 42
-32z m863 25 c26 -21 34 -39 16 -39 -5 0 -9 6 -7 13 1 8 -13 12 -45 12 -44 1
-46 0 -36 -20 6 -11 7 -17 3 -13 -5 4 -14 3 -21 -3 -10 -8 -12 -6 -9 10 6 30
14 41 39 51 30 12 30 12 60 -11z m-879 -48 c7 -12 -12 -24 -25 -16 -11 7 -4
25 10 25 5 0 11 -4 15 -9z m906 -48 c-12 -20 -14 -14 -5 12 4 9 9 14 11 11 3
-2 0 -13 -6 -23z m-767 -29 c5 -12 11 -11 41 3 45 21 100 9 128 -29 16 -21 18
-33 11 -65 -18 -75 -126 -94 -140 -24 -4 18 -12 28 -22 27 -13 -1 -17 8 -17
39 0 34 -3 40 -22 43 -23 3 -29 13 -17 25 9 9 32 -3 38 -19z m-304 -4 c22 -11
40 -23 40 -26 0 -2 -9 0 -21 6 -21 12 -73 5 -66 -8 3 -4 1 -16 -4 -27 -6 -15
-8 -10 -8 21 -1 36 5 54 16 54 2 0 22 -9 43 -20z m20 -64 c0 -14 -28 -42 -35
-34 -2 2 -2 14 2 26 6 24 33 31 33 8z m801 -39 l11 -22 -21 22 c-22 23 -28 39
-11 28 5 -3 15 -16 21 -28z m-251 -17 c17 -32 1 -42 -26 -15 -29 29 -30 35 -4
35 10 0 24 -9 30 -20z m-378 -39 c10 -16 14 -17 40 -4 35 18 71 10 104 -22 43
-43 24 -135 -28 -135 -22 0 -60 18 -70 34 -4 6 -18 11 -30 11 -20 0 -23 5 -24
44 -1 43 -2 45 -35 49 -47 5 -55 16 -30 41 17 17 25 19 41 11 11 -6 25 -19 32
-29z m482 19 c14 -5 30 -19 37 -32 12 -23 12 -23 -9 -4 -15 13 -29 16 -48 12
-14 -4 -24 -9 -22 -12 9 -8 -62 -75 -72 -69 -27 17 -4 77 38 99 32 18 43 19
76 6z m-850 -66 c22 -22 20 -41 -2 -21 -10 10 -25 17 -34 17 -16 0 -42 -26
-51 -50 -4 -13 -6 -13 -11 1 -4 8 -2 28 3 42 9 22 17 27 45 27 19 0 42 -7 50
-16z m325 -65 c52 -60 60 -74 55 -97 -14 -55 -23 -67 -57 -80 -31 -11 -41 -11
-67 3 -16 8 -30 19 -30 24 0 5 -11 12 -25 15 -18 5 -25 13 -25 30 0 24 -17 36
-51 36 -23 0 -24 18 -3 48 13 19 14 26 3 40 -12 15 -12 15 7 0 11 -10 24 -18
29 -18 5 0 17 -8 28 -17 19 -17 20 -17 8 4 -24 46 -4 58 35 22 24 -23 54 -18
34 6 -14 17 -21 55 -11 55 4 0 36 -32 70 -71z m348 49 c26 -29 46 -68 39 -75
-3 -4 0 -13 7 -22 10 -14 10 -14 -5 -3 -10 8 -14 20 -11 29 4 10 2 14 -4 10
-6 -4 -16 0 -23 9 -7 8 -19 13 -26 10 -8 -3 -11 0 -7 10 3 7 0 14 -6 14 -6 0
-11 5 -11 11 0 5 4 7 10 4 6 -3 7 1 4 9 -9 23 9 19 33 -6z m-696 -13 c0 -5 -9
-11 -21 -13 -20 -3 -27 8 -13 22 10 9 34 3 34 -9z m129 -35 c0 -5 -4 -10 -10
-10 -5 0 -10 5 -10 10 0 6 5 10 10 10 6 0 10 -4 10 -10z m476 -15 c-3 -8 0
-14 6 -12 14 3 54 -64 70 -116 9 -30 9 -40 -2 -50 -7 -7 -10 -7 -7 -1 3 6 0
22 -8 37 -8 15 -12 27 -9 27 7 0 -29 54 -45 66 -18 14 -26 64 -10 64 6 0 9 -7
5 -15z m241 -26 c23 11 25 10 13 -3 -17 -21 -44 -20 -61 2 -13 15 -12 16 4 3
14 -11 23 -12 44 -2z m63 -32 c0 -2 -15 -16 -32 -33 l-33 -29 29 33 c28 30 36
37 36 29z m-1020 -17 c-23 -7 -23 -8 -3 -9 29 -1 39 -19 20 -38 -10 -10 -22
-13 -34 -8 -10 5 -24 7 -30 6 -7 -1 -13 4 -13 10 0 23 33 49 59 48 l26 -1 -25
-8z m592 -107 c16 -35 28 -68 25 -75 -2 -7 -18 15 -34 49 -17 34 -33 59 -37
55 -4 -3 -4 1 -1 10 4 9 1 27 -5 40 -11 22 -11 23 6 3 9 -11 30 -48 46 -82z
m102 27 c7 -24 6 -24 -8 -6 -9 11 -16 27 -16 35 0 21 16 2 24 -29z m206 -17
c-77 -80 -134 -132 -152 -138 -9 -3 -20 -15 -23 -26 -4 -10 -11 -19 -16 -19
-6 0 -25 -11 -43 -25 -18 -14 -36 -22 -41 -17 -5 4 -5 1 -1 -5 5 -9 -1 -13
-18 -13 -14 0 -26 6 -26 13 0 6 -5 4 -11 -5 -5 -10 -18 -18 -28 -18 -22 0 -44
-23 -33 -35 4 -5 0 -4 -8 1 -8 4 -25 7 -37 5 -18 -2 -23 3 -23 19 0 23 53 51
100 54 38 2 166 82 253 158 24 20 54 39 69 43 14 4 36 18 49 31 12 13 25 24
28 24 3 0 -15 -21 -39 -47z m-809 -8 c16 -9 40 -33 54 -55 26 -42 51 -54 42
-21 -3 14 -1 18 10 14 8 -3 21 3 29 13 9 11 13 13 9 7 -3 -7 -2 -13 2 -13 5 0
15 6 22 13 10 10 17 6 38 -18 18 -20 33 -29 50 -27 37 5 93 -56 93 -102 0 -51
-46 -96 -66 -64 -4 6 -3 8 3 5 13 -8 38 20 48 51 8 27 -18 62 -47 62 -33 0
-61 -38 -54 -74 3 -17 3 -26 -2 -19 -4 6 -20 15 -35 18 -31 8 -36 39 -12 71
20 26 19 41 -5 54 -18 10 -19 9 -8 -15 15 -33 0 -47 -19 -17 -16 22 -61 33
-47 10 4 -6 3 -8 -4 -4 -16 9 -20 -14 -10 -58 17 -76 3 -83 -20 -11 -40 121
-60 155 -91 155 -27 0 -51 -16 -51 -34 0 -6 5 -5 12 2 18 18 42 15 62 -7 18
-20 56 -129 56 -162 0 -27 -24 -24 -40 6 -7 14 -19 25 -25 25 -6 0 -16 12 -23
28 l-11 27 4 -30 c12 -83 14 -129 6 -105 -5 14 -9 21 -10 16 -1 -5 -8 -3 -16
4 -20 17 -43 -2 -47 -38 -4 -33 -28 137 -28 197 0 52 12 76 48 95 35 19 46 19
83 1z m616 -27 c-3 -8 -6 -5 -6 6 -1 11 2 17 5 13 3 -3 4 -12 1 -19z m-196
-43 c15 -33 17 -50 10 -63 -7 -11 -10 -12 -11 -3 0 7 -6 11 -15 7 -8 -3 -15
-1 -15 5 0 6 -4 8 -9 5 -8 -5 -56 63 -49 69 45 35 67 30 89 -20z m329 -35 c0
-14 -49 -60 -63 -60 -6 0 4 16 23 35 37 38 40 40 40 25z m-454 -48 c21 -14 23
-40 3 -45 -10 -3 -19 -1 -19 4 0 5 -7 9 -15 9 -18 0 -19 12 -3 28 14 14 19 14
34 4z m334 -72 c-8 -5 -11 -10 -6 -10 5 0 -9 -12 -30 -26 -21 -15 -42 -31 -45
-36 -3 -5 -9 -3 -12 6 -6 16 39 60 53 51 4 -3 13 2 20 10 7 8 18 15 24 15 6 0
4 -5 -4 -10z m-150 -54 c0 -2 -7 -7 -16 -10 -8 -3 -12 -2 -9 4 6 10 25 14 25
6z m-755 -41 c0 -15 -6 -19 -24 -17 -31 3 -35 7 -27 27 9 24 51 15 51 -10z
m507 -14 c-2 -17 2 -22 13 -17 10 3 13 2 10 -5 -4 -6 -13 -8 -21 -5 -8 3 -14
0 -14 -6 0 -6 -3 -8 -7 -5 -3 4 -11 3 -17 -2 -22 -19 -64 -20 -71 -3 -4 11 -9
13 -13 6 -4 -6 -20 -14 -37 -18 -16 -3 -39 -8 -50 -11 -135 -30 -299 -46 -482
-47 -157 -1 -203 -4 -203 -14 0 -7 6 -15 13 -17 7 -3 4 -6 -6 -6 -15 -1 -18 6
-15 39 l3 40 225 3 c184 3 247 8 345 27 66 13 138 25 160 26 22 1 60 11 85 23
58 27 86 24 82 -8z m-1354 -101 c5 -13 3 -13 -11 -1 -15 11 -17 11 -17 -2 0
-8 7 -18 16 -21 9 -4 15 -9 12 -11 -12 -13 -38 9 -38 32 0 17 5 24 17 21 9 -2
19 -10 21 -18z m1139 -6 c-3 -3 -12 -4 -19 -1 -8 3 -5 6 6 6 11 1 17 -2 13 -5z
m140 -26 c-3 -7 -5 -2 -5 12 0 14 2 19 5 13 2 -7 2 -19 0 -25z m-197 12 c-14
-4 -34 -8 -45 -8 -16 0 -15 2 5 8 14 4 34 8 45 8 16 0 15 -2 -5 -8z m-87 -17
c-7 -2 -19 -2 -25 0 -7 3 -2 5 12 5 14 0 19 -2 13 -5z m-75 -10 c-10 -2 -28
-2 -40 0 -13 2 -5 4 17 4 22 1 32 -1 23 -4z m-842 -80 c-14 -14 -26 15 -19 48
l7 34 9 -38 c5 -21 6 -41 3 -44z m667 70 c-45 -2 -122 -2 -170 0 -48 1 -11 3
82 3 94 0 133 -2 88 -3z m-625 -66 c2 -10 -3 -17 -12 -17 -10 0 -16 9 -16 21
0 24 23 21 28 -4z"/>
<path d="M3251 1952 c-46 -37 -15 -134 38 -117 11 3 21 13 21 20 0 8 5 17 12
21 8 5 9 2 4 -11 -5 -15 -4 -16 9 -5 22 19 18 63 -8 88 -28 27 -48 28 -76 4z
m67 -24 c7 -7 12 -16 12 -22 0 -5 -6 -3 -12 6 -7 9 -24 19 -38 21 l-25 4 26 2
c14 0 30 -4 37 -11z m-31 -43 c-7 -19 -32 -10 -33 12 -1 18 1 20 17 10 11 -7
18 -16 16 -22z"/>
<path d="M3134 1756 c-15 -24 -15 -28 0 -52 34 -50 101 -15 80 43 -13 39 -56
44 -80 9z m68 -10 c6 -14 8 -32 5 -40 -12 -32 -67 -12 -67 24 0 19 19 40 37
40 7 0 18 -11 25 -24z"/>
<path d="M2960 1638 c-27 -30 -25 -62 6 -87 30 -24 53 -17 80 24 14 21 14 26
-1 54 -19 38 -55 41 -85 9z m70 -14 c0 -3 -5 -2 -10 1 -6 4 -18 4 -26 1 -12
-5 -12 -9 -2 -26 16 -25 35 -26 41 -2 4 14 5 13 6 -3 2 -36 -18 -47 -51 -27
-32 19 -38 56 -11 71 16 9 53 -1 53 -15z"/>
<path d="M4307 3090 c-3 -11 -2 -22 2 -24 4 -3 8 6 9 20 2 29 -4 31 -11 4z"/>
<path d="M2959 3085 c-1 -3 -2 -11 -3 -17 -1 -7 -7 -12 -13 -11 -7 2 -24 -17
-40 -42 -15 -24 -34 -44 -41 -45 -7 0 -10 -5 -7 -10 4 -6 2 -16 -3 -23 -5 -7
-10 -19 -11 -27 0 -8 -3 -33 -6 -55 -4 -34 -3 -35 4 -10 4 17 15 45 25 63 9
17 13 32 9 32 -4 0 3 7 15 16 14 9 21 22 18 31 -3 8 -2 12 3 9 14 -9 32 20 25
40 -4 14 -3 15 4 6 7 -11 14 -7 31 17 18 25 20 31 7 31 -9 0 -17 -2 -17 -5z"/>
<path d="M4225 2985 c-65 -128 -160 -215 -279 -257 -28 -9 -42 -17 -31 -18 29
0 133 52 182 91 69 56 181 220 171 251 -2 5 -21 -25 -43 -67z"/>
<path d="M3150 2992 c0 -9 -13 -11 -47 -7 -53 6 -99 -11 -97 -36 1 -9 -5 -16
-12 -16 -18 0 -18 7 2 37 l16 25 -21 -24 c-24 -27 -29 -92 -8 -110 8 -6 17 -8
20 -5 4 4 11 -5 16 -19 8 -22 16 -26 43 -25 18 0 51 -9 73 -21 22 -11 45 -21
52 -21 21 0 15 38 -9 54 -22 15 -21 16 16 13 56 -3 55 18 0 37 -56 19 -134 63
-134 76 0 5 22 6 50 3 41 -5 51 -3 56 11 4 10 2 22 -5 29 -8 8 -11 8 -11 -1z
m-65 -77 c17 -14 26 -25 20 -25 -5 1 -23 12 -40 25 -16 14 -25 25 -20 25 6 -1
24 -12 40 -25z m-45 -7 c10 -21 10 -21 -3 -6 -11 14 -16 15 -27 5 -12 -10 -12
-9 -1 6 17 22 18 22 31 -5z m41 -44 c9 -25 11 -25 27 -11 16 15 18 15 18 -3 0
-11 -6 -20 -12 -20 -27 0 -44 13 -44 34 -1 20 -1 20 -14 3 -12 -16 -14 -16
-20 -2 -3 9 -2 13 3 10 5 -3 12 -1 16 5 10 15 15 12 26 -16z"/>
<path d="M1958 2879 c-22 -12 -24 -39 -3 -39 16 0 29 22 23 39 -2 6 -9 6 -20
0z"/>
<path d="M2700 2815 c-12 -13 -25 -24 -29 -23 -3 1 -18 -4 -32 -11 -33 -16
-49 -58 -34 -88 l12 -23 11 25 c7 14 12 32 12 40 0 8 18 26 39 41 36 23 57 51
48 60 -2 2 -14 -7 -27 -21z"/>
<path d="M2742 2773 c-10 -19 -15 -48 -13 -73 3 -24 41 28 41 56 0 30 -16 40
-28 17z"/>
<path d="M2543 2723 c-21 -8 -16 -43 6 -43 21 0 31 17 23 38 -4 13 -9 14 -29
5z"/>
<path d="M1992 2657 c-8 -9 -1 -22 24 -50 45 -49 53 -48 13 2 -17 22 -28 44
-24 50 9 15 0 14 -13 -2z"/>
<path d="M2632 2641 c-25 -34 -26 -40 -12 -61 7 -12 13 -11 34 10 29 27 32 39
13 64 -11 16 -14 15 -35 -13z"/>
<path d="M3156 2655 c-11 -8 -15 -15 -9 -15 6 0 16 7 23 15 16 19 11 19 -14 0z"/>
<path d="M2055 2493 c0 -22 -5 -29 -25 -32 -25 -3 -25 -3 -6 18 11 12 15 21
10 21 -17 0 -34 -23 -34 -46 0 -26 26 -39 34 -18 3 9 10 12 16 9 5 -3 15 6 22
20 9 21 9 29 -3 40 -13 13 -15 12 -14 -12z"/>
<path d="M2570 2492 c12 -18 25 -31 28 -27 3 3 -7 18 -23 33 l-28 27 23 -33z"/>
<path d="M1986 2488 c-17 -23 -22 -88 -8 -88 5 0 7 14 4 30 -2 18 2 40 12 55
20 31 13 33 -8 3z"/>
<path d="M2475 2471 c-3 -6 -3 -11 1 -11 4 0 0 -8 -9 -18 -13 -14 -15 -30 -8
-60 1 -2 14 5 31 14 29 18 30 18 61 -11 22 -21 17 -12 -16 30 -26 33 -49 61
-50 63 -2 2 -6 -1 -10 -7z"/>
<path d="M2242 2435 c0 -16 2 -22 5 -12 2 9 2 23 0 30 -3 6 -5 -1 -5 -18z"/>
<path d="M2202 2405 c0 -16 2 -22 5 -12 2 9 2 23 0 30 -3 6 -5 -1 -5 -18z"/>
<path d="M793 2368 c-12 -13 -28 -47 -37 -77 -18 -62 -20 -81 -7 -81 5 0 12
21 16 48 3 26 18 66 31 90 28 47 27 52 -3 20z"/>
<path d="M1490 2381 c0 -5 5 -13 10 -16 6 -3 10 -2 10 4 0 5 -4 13 -10 16 -5
3 -10 2 -10 -4z"/>
<path d="M2162 2360 c0 -19 2 -27 5 -17 2 9 2 25 0 35 -3 9 -5 1 -5 -18z"/>
<path d="M882 2318 c-42 -69 -52 -148 -19 -148 9 0 12 10 9 33 -2 18 6 57 17
87 24 63 21 74 -7 28z"/>
<path d="M1515 2296 c6 -45 4 -60 -6 -67 -9 -6 -10 -9 -2 -9 22 0 30 31 21 78
-12 67 -21 66 -13 -2z"/>
<path d="M2365 2331 c-4 -12 -18 -33 -31 -46 -20 -20 -23 -29 -14 -45 14 -26
16 -26 57 10 18 17 37 30 41 30 4 0 18 -16 31 -36 27 -39 127 -144 138 -144 4
0 -13 21 -38 48 -26 26 -72 79 -104 117 -32 39 -61 74 -65 79 -5 4 -11 -2 -15
-13z"/>
<path d="M2590 2344 c0 -16 111 -113 153 -133 64 -31 85 -21 22 12 -27 14 -78
48 -112 76 -35 28 -63 48 -63 45z"/>
<path d="M2113 2305 c0 -22 2 -30 4 -17 2 12 2 30 0 40 -3 9 -5 -1 -4 -23z"/>
<path d="M1000 2294 c-6 -15 -15 -47 -21 -72 -5 -25 -17 -51 -27 -58 -14 -10
-8 -13 41 -19 32 -4 61 -5 64 -1 4 3 -6 6 -22 6 l-28 0 6 85 c3 47 4 85 1 85
-2 0 -9 -12 -14 -26z"/>
<path d="M1451 2282 c-1 -29 16 -62 32 -62 8 0 8 3 -1 9 -8 5 -18 24 -22 42
-6 25 -8 28 -9 11z"/>
<path d="M1112 2254 c-20 -80 -23 -124 -8 -124 10 0 15 20 18 78 3 42 3 79 2
81 -2 1 -7 -14 -12 -35z"/>
<path d="M1384 2223 c1 -62 4 -73 19 -73 9 0 17 5 17 10 0 6 -4 10 -9 10 -4 0
-13 28 -19 63 l-10 62 2 -72z"/>
<path d="M1288 2210 l-3 -70 30 0 c25 1 27 2 13 11 -14 8 -18 23 -18 64 0 80
-18 76 -22 -5z"/>
<path d="M1967 2203 c-4 -32 -10 -68 -13 -81 -5 -18 -3 -21 10 -16 13 5 16 21
16 80 0 41 -2 74 -4 74 -2 0 -6 -26 -9 -57z"/>
<path d="M1896 2233 c-6 -14 -5 -15 5 -6 7 7 10 15 7 18 -3 3 -9 -2 -12 -12z"/>
<path d="M1237 2203 c-4 -3 -7 -21 -7 -39 0 -25 4 -32 14 -28 10 4 12 13 6 34
-4 16 -6 31 -2 34 3 3 3 6 0 6 -2 0 -8 -3 -11 -7z"/>
<path d="M2220 2194 c0 -6 -9 -20 -21 -33 -20 -21 -20 -23 -4 -41 17 -19 18
-19 46 1 l28 20 35 -37 c19 -21 32 -42 29 -47 -3 -6 -1 -7 6 -3 8 5 3 19 -18
44 -40 51 -101 108 -101 96z"/>
<path d="M681 2176 c2 -2 15 -9 29 -15 24 -11 24 -11 6 3 -16 13 -49 24 -35
12z"/>
<path d="M541 2154 c0 -11 3 -14 6 -6 3 7 2 16 -1 19 -3 4 -6 -2 -5 -13z"/>
<path d="M592 2130 c0 -25 4 -58 8 -75 l8 -30 0 35 c1 19 -3 53 -7 75 l-9 40
0 -45z"/>
<path d="M908 2163 c7 -3 16 -2 19 1 4 3 -2 6 -13 5 -11 0 -14 -3 -6 -6z"/>
<path d="M1180 2158 c0 -9 -8 -19 -17 -21 -11 -3 -7 -5 10 -6 29 -1 33 5 17
29 -8 13 -10 13 -10 -2z"/>
<path d="M1443 2163 c9 -2 23 -2 30 0 6 3 -1 5 -18 5 -16 0 -22 -2 -12 -5z"/>
<path d="M1806 2153 c-6 -14 -5 -15 5 -6 7 7 10 15 7 18 -3 3 -9 -2 -12 -12z"/>
<path d="M649 2146 c7 -8 35 -23 64 -34 142 -56 293 -83 452 -81 89 2 88 2
-37 10 -111 6 -203 19 -260 35 -10 3 -18 13 -18 23 0 12 -16 22 -52 34 -29 9
-54 15 -56 13 -2 -2 19 -12 47 -21 57 -19 70 -41 19 -30 -18 4 -64 20 -102 36
-39 17 -64 23 -57 15z"/>
<path d="M624 2124 c3 -29 16 -45 16 -20 0 14 4 15 21 6 16 -9 20 -19 17 -47
-2 -23 2 -38 10 -41 8 -2 12 10 12 40 0 40 -3 45 -39 64 l-39 21 2 -23z"/>
<path d="M1800 2079 c0 -33 -6 -63 -16 -77 -17 -25 -9 -29 16 -7 13 12 16 28
13 73 -6 74 -13 80 -13 11z"/>
<path d="M1577 2104 c-4 -4 -7 -14 -7 -23 0 -11 3 -12 11 -4 6 6 10 16 7 23
-2 6 -7 8 -11 4z"/>
<path d="M1665 2098 c-2 -7 -6 -40 -7 -72 -2 -44 -8 -62 -21 -70 -14 -8 -20
-8 -27 4 -6 9 -10 10 -10 3 0 -6 -3 -19 -7 -28 -5 -15 -1 -16 28 -10 19 4 36
9 38 11 4 4 18 174 13 174 -1 0 -5 -6 -7 -12z"/>
<path d="M1902 2090 c0 -14 2 -19 5 -12 2 6 2 18 0 25 -3 6 -5 1 -5 -13z"/>
<path d="M653 2086 c5 -13 3 -17 -7 -13 -9 4 -13 0 -12 -11 2 -9 9 -18 17 -20
11 -3 11 -1 -1 7 -13 9 -13 11 3 11 19 0 23 25 5 36 -8 5 -9 2 -5 -10z"/>
<path d="M720 2014 c0 -46 5 -86 10 -89 6 -3 10 0 10 7 2 45 9 130 12 134 2 2
17 0 34 -4 25 -7 29 -14 32 -45 2 -28 -1 -37 -12 -37 -11 0 -16 9 -16 28 0 21
-2 24 -10 12 -16 -24 -12 -36 15 -48 14 -7 27 -12 29 -12 2 0 6 18 10 40 4 28
11 40 23 40 16 0 16 -2 0 -135 -1 -11 3 -21 8 -23 6 -1 13 21 17 50 13 90 16
97 38 91 17 -5 20 -14 20 -60 0 -47 2 -53 14 -40 10 10 13 27 9 57 -6 42 -5
43 18 37 13 -4 30 -7 37 -7 8 0 12 -22 12 -74 l0 -74 36 -7 c20 -3 38 -5 40
-2 2 2 7 35 11 73 8 67 9 69 37 72 26 3 28 1 24 -22 -3 -14 -1 -26 3 -26 5 0
9 14 9 30 0 29 -2 30 -45 30 l-44 0 -3 -67 c-3 -65 -4 -68 -28 -68 -17 0 -25
5 -24 18 0 9 1 37 2 62 2 37 6 47 25 55 19 7 16 9 -18 9 -67 2 -163 20 -251
50 l-84 28 0 -83z"/>
<path d="M1520 2049 c0 -5 5 -7 10 -4 6 3 10 8 10 11 0 2 -4 4 -10 4 -5 0 -10
-5 -10 -11z"/>
<path d="M1731 2044 c0 -11 3 -14 6 -6 3 7 2 16 -1 19 -3 4 -6 -2 -5 -13z"/>
<path d="M1313 2043 c9 -2 25 -2 35 0 9 3 1 5 -18 5 -19 0 -27 -2 -17 -5z"/>
<path d="M1475 2038 c-2 -7 -6 -38 -8 -68 -2 -30 -8 -63 -12 -72 -6 -14 -2
-18 18 -18 44 0 57 10 57 44 0 31 0 31 -13 7 -21 -41 -32 -24 -32 49 0 70 -2
81 -10 58z"/>
<path d="M1402 2000 c0 -19 2 -27 5 -17 2 9 2 25 0 35 -3 9 -5 1 -5 -18z"/>
<path d="M1245 1973 c-4 -26 -11 -63 -17 -81 -9 -30 -5 -53 7 -40 7 7 27 159
21 165 -2 3 -7 -17 -11 -44z"/>
<path d="M1320 1940 c0 -44 3 -80 8 -80 4 0 8 36 10 80 2 52 0 80 -7 80 -7 0
-11 -30 -11 -80z"/>
<path d="M1727 2010 c-3 -8 -7 -25 -10 -37 -4 -20 -3 -21 19 -11 14 7 20 14
15 17 -5 3 -11 15 -13 26 -4 16 -6 17 -11 5z"/>
<path d="M2414 1947 c16 -20 30 -37 33 -37 7 0 -36 58 -49 66 -7 4 1 -9 16
-29z"/>
<path d="M788 1940 c12 -5 22 -14 22 -20 0 -5 5 -10 10 -10 20 0 9 28 -12 34
-34 9 -46 6 -20 -4z"/>
<path d="M1170 1920 c0 -11 2 -20 4 -20 2 0 6 9 9 20 3 11 1 20 -4 20 -5 0 -9
-9 -9 -20z"/>
<path d="M2600 1901 c0 -5 11 -8 24 -7 13 0 22 4 19 9 -6 10 -43 9 -43 -2z"/>
<path d="M914 1885 c8 -8 17 -15 20 -15 3 0 6 7 6 15 0 9 -9 15 -21 15 -18 0
-19 -2 -5 -15z"/>
<path d="M2402 1490 c0 -14 2 -19 5 -12 2 6 2 18 0 25 -3 6 -5 1 -5 -13z"/>
<path d="M1511 1470 c-13 -11 -19 -20 -14 -20 6 0 18 9 28 20 23 25 17 25 -14
0z"/>
<path d="M1660 1350 c-14 -10 -25 -25 -25 -32 -1 -24 -60 -95 -75 -90 -22 7
-9 -5 25 -22 l29 -15 13 52 c8 29 27 69 44 90 33 40 28 48 -11 17z"/>
<path d="M1333 1205 c0 -27 2 -38 4 -22 2 15 2 37 0 50 -2 12 -4 0 -4 -28z"/>
<path d="M1380 1196 c0 -2 8 -10 18 -17 15 -13 16 -12 3 4 -13 16 -21 21 -21
13z"/>
<path d="M1362 1170 c0 -14 2 -19 5 -12 2 6 2 18 0 25 -3 6 -5 1 -5 -13z"/>
<path d="M1638 1183 c7 -3 16 -2 19 1 4 3 -2 6 -13 5 -11 0 -14 -3 -6 -6z"/>
</g>
</svg>
