<?xml version="1.0" standalone="no"?>
<!DOCTYPE svg PUBLIC "-//W3C//DTD SVG 20010904//EN"
 "http://www.w3.org/TR/2001/REC-SVG-20010904/DTD/svg10.dtd">
<svg version="1.0" xmlns="http://www.w3.org/2000/svg"
 width="500.000000pt" height="500.000000pt" viewBox="0 0 500.000000 500.000000"
 preserveAspectRatio="xMidYMid meet">

<g transform="translate(0.000000,500.000000) scale(0.100000,-0.100000)"
fill="#000000" stroke="none">
<path d="M3214 3914 c-12 -7 -25 -10 -28 -7 -3 3 -8 -2 -12 -11 -3 -9 -10 -13
-15 -11 -5 3 -61 -47 -126 -112 -65 -65 -145 -139 -178 -164 -33 -26 -59 -51
-57 -58 1 -6 -3 -11 -10 -11 -6 0 -4 -8 6 -19 9 -10 19 -34 23 -54 4 -24 13
-38 30 -46 22 -10 29 -8 59 19 59 51 104 51 228 0 l68 -29 38 24 c99 62 190
235 190 362 0 94 -127 163 -216 117z"/>
<path d="M3960 3535 c-14 -8 -34 -19 -45 -24 -11 -5 -69 -57 -130 -116 -177
-171 -189 -181 -217 -200 -16 -9 -28 -22 -28 -27 0 -6 18 -37 40 -70 22 -33
40 -69 40 -80 0 -27 57 -49 145 -55 87 -7 161 13 231 59 118 80 219 325 177
430 -23 57 -82 98 -142 98 -25 0 -57 -7 -71 -15z"/>
<path d="M3569 3481 c-7 -23 -16 -41 -21 -41 -4 0 -8 -8 -8 -17 -1 -10 -14
-34 -30 -53 -17 -19 -30 -39 -30 -46 0 -6 -8 -18 -17 -25 -17 -13 -17 -13 -3
6 14 18 14 19 -2 7 -9 -8 -14 -20 -11 -28 7 -18 37 -3 58 30 23 34 88 197 82
203 -3 3 -11 -13 -18 -36z"/>
<path d="M2245 3360 c4 -6 11 -8 16 -5 14 9 11 15 -7 15 -8 0 -12 -5 -9 -10z"/>
<path d="M2280 3339 c0 -11 4 -17 10 -14 12 7 150 -72 150 -85 0 -6 4 -10 9
-10 6 0 4 12 -4 27 -8 16 -42 43 -82 65 -80 44 -83 44 -83 17z"/>
<path d="M2495 3289 c5 -14 2 -25 -6 -30 -10 -6 -10 -9 -2 -9 15 0 36 37 28
50 -12 19 -26 10 -20 -11z"/>
<path d="M4360 3227 c0 -29 -23 -68 -37 -63 -7 3 -13 1 -13 -3 0 -5 6 -11 12
-13 10 -4 8 -9 -3 -21 -9 -9 -19 -13 -23 -10 -3 4 -6 -3 -6 -15 0 -12 -4 -22
-9 -22 -5 0 -11 -14 -15 -31 -3 -17 -10 -28 -16 -24 -5 3 -10 -1 -10 -10 0 -9
-3 -14 -7 -12 -10 5 -43 -30 -35 -37 3 -3 -2 -6 -11 -6 -9 0 -17 -7 -17 -15 0
-8 -6 -15 -14 -15 -8 0 -16 -4 -18 -8 -4 -10 -99 -74 -113 -76 -5 -1 -17 -6
-25 -11 -8 -6 -31 -11 -51 -11 -20 -1 -43 -5 -50 -10 -12 -8 -37 -12 -74 -14
-5 0 -43 1 -84 2 -50 2 -75 -1 -78 -9 -3 -6 -11 -9 -19 -6 -8 3 -12 8 -9 13 2
4 -13 4 -35 0 -22 -4 -37 -3 -34 1 3 5 -7 9 -21 9 l-26 0 24 33 c29 38 77 121
77 131 0 5 -18 -16 -39 -44 -37 -49 -64 -82 -191 -235 -28 -33 -87 -105 -132
-160 -44 -55 -134 -159 -199 -231 -215 -239 -408 -469 -418 -496 -14 -39 -7
-35 28 15 17 23 43 56 58 73 15 17 46 53 68 79 72 86 186 214 198 222 7 5 30
31 52 58 21 28 42 52 45 55 3 3 23 26 44 52 22 27 43 45 50 41 6 -3 8 -3 4 2
-4 4 2 16 14 26 11 11 18 19 15 19 -4 0 1 9 10 19 9 11 21 17 26 14 6 -3 7 -1
3 5 -11 18 171 191 195 187 10 -2 22 1 25 7 4 7 2 8 -4 4 -7 -4 -12 -2 -12 3
0 14 -9 15 82 -13 42 -13 79 -21 82 -18 3 3 6 0 6 -6 0 -7 10 -12 22 -12 12 0
29 -7 39 -16 13 -12 19 -12 25 -3 4 7 3 10 -4 5 -6 -3 -13 -2 -17 3 -8 14 34
5 53 -11 8 -7 17 -12 19 -10 9 6 23 1 18 -8 -3 -6 1 -7 9 -4 9 3 16 1 16 -5 0
-9 -11 -14 -30 -13 -3 0 -5 -13 -5 -29 0 -21 5 -29 18 -29 11 0 17 8 17 21 0
11 4 18 9 15 13 -8 1 -47 -15 -53 -8 -3 -12 -9 -9 -13 3 -4 -2 -13 -11 -20
-12 -11 -17 -11 -27 0 -10 10 -8 12 6 7 12 -5 16 -3 11 5 -5 7 -3 8 6 3 8 -5
11 -4 6 3 -12 19 -44 10 -40 -11 2 -11 6 -22 9 -25 9 -9 -17 -32 -36 -32 -12
0 -16 -5 -13 -15 4 -8 1 -15 -6 -15 -10 0 -10 -3 0 -15 7 -9 10 -18 7 -22 -4
-3 -1 -13 5 -22 8 -10 4 -9 -9 3 -13 10 -20 22 -18 27 3 4 0 11 -6 15 -8 4 -9
3 -5 -4 4 -8 0 -12 -11 -13 -15 0 -14 -2 4 -9 13 -5 21 -17 20 -29 -1 -19 -12
-19 -12 0 0 14 -20 11 -20 -3 -1 -7 -6 -12 -13 -11 -7 2 -11 0 -11 -5 4 -21
-2 -42 -12 -42 -5 0 -7 6 -3 13 4 6 -3 2 -15 -10 -11 -12 -21 -30 -21 -39 0
-10 3 -14 8 -10 4 4 7 12 7 17 0 12 19 13 23 1 1 -5 -9 -17 -23 -26 -22 -14
-25 -15 -25 -1 0 8 -4 15 -9 15 -5 0 -7 -9 -4 -20 3 -12 0 -20 -6 -20 -7 0 -9
-5 -5 -11 9 -16 -17 -30 -41 -22 -17 5 -16 2 5 -16 23 -20 23 -22 5 -18 -15 3
-21 -1 -22 -16 -1 -10 -9 -27 -17 -36 -9 -10 -16 -23 -16 -30 0 -7 -5 -9 -12
-5 -8 5 -9 0 -5 -15 5 -19 3 -20 -11 -9 -13 11 -15 10 -10 -10 4 -12 2 -22 -4
-22 -5 0 -7 -4 -4 -9 4 -5 -3 -7 -14 -4 -17 4 -20 1 -16 -18 4 -26 -28 -69
-52 -69 -8 0 -12 -6 -9 -15 4 -8 2 -17 -3 -20 -5 -3 -8 -14 -7 -25 1 -10 5
-16 9 -14 4 3 8 -2 8 -12 0 -11 -6 -15 -20 -11 -11 3 -18 1 -14 -4 10 -16 31
-9 63 20 17 16 31 27 31 25 0 -11 193 144 320 256 107 95 359 288 431 330 121
72 355 277 366 322 19 77 24 68 -105 187 -23 22 -43 43 -42 46 0 3 0 15 0 28
-1 22 -1 22 -17 2 l-16 -20 8 20 c15 40 15 59 0 30 -8 -16 -12 -41 -9 -55 3
-19 2 -22 -6 -10 -5 8 -10 13 -10 10 0 -13 -54 -157 -98 -265 -27 -66 -52
-133 -56 -149 -4 -15 -9 -26 -13 -23 -7 7 41 150 84 252 86 202 159 443 139
462 -3 4 -6 -1 -6 -10z m-800 -533 c0 -2 -9 -4 -21 -4 -11 0 -18 4 -14 10 5 8
35 3 35 -6z m45 -14 c3 -6 -1 -7 -9 -4 -18 7 -21 14 -7 14 6 0 13 -4 16 -10z
m129 -285 c-4 -8 -10 -15 -15 -15 -4 0 -6 7 -3 15 4 8 10 15 15 15 4 0 6 -7 3
-15z m-64 -109 c0 -3 -4 -8 -10 -11 -5 -3 -10 -1 -10 4 0 6 5 11 10 11 6 0 10
-2 10 -4z m-323 -468 c-3 -7 -5 -2 -5 12 0 14 2 19 5 13 2 -7 2 -19 0 -25z"/>
<path d="M1727 3173 c-4 -3 -7 -11 -7 -17 0 -6 5 -5 12 2 6 6 9 14 7 17 -3 3
-9 2 -12 -2z"/>
<path d="M2100 3099 c0 -10 3 -18 8 -17 11 3 113 -31 146 -49 l29 -16 -16 23
c-10 15 -46 34 -92 51 -71 26 -75 27 -75 8z"/>
<path d="M2642 3074 l-11 -38 20 21 c16 15 19 25 12 37 -8 14 -11 10 -21 -20z"/>
<path d="M2316 3074 c-9 -22 3 -32 14 -14 12 19 12 30 1 30 -5 0 -12 -7 -15
-16z"/>
<path d="M3497 3074 c7 -3 15 -5 19 -4 4 1 11 -4 16 -12 8 -11 9 -10 6 1 -2 8
-15 15 -29 17 -13 1 -18 0 -12 -2z"/>
<path d="M3293 3063 c-13 -2 -23 -9 -23 -14 0 -5 10 -7 23 -4 27 6 92 9 130 7
18 -1 26 -6 21 -13 -4 -7 0 -9 14 -5 11 4 23 2 27 -4 3 -5 16 -10 28 -10 13 1
-2 11 -37 25 -57 24 -121 30 -183 18z"/>
<path d="M3208 3030 c-20 -11 -39 -24 -43 -29 -4 -8 77 32 94 46 13 10 -19 -1
-51 -17z"/>
<path d="M2303 3013 c9 -2 23 -2 30 0 6 3 -1 5 -18 5 -16 0 -22 -2 -12 -5z"/>
<path d="M1536 2902 l-19 -27 24 22 c12 12 21 24 18 27 -2 2 -13 -8 -23 -22z"/>
<path d="M1927 2893 c-10 -9 -8 -25 2 -19 8 5 115 -33 154 -54 9 -6 17 -7 17
-3 -1 20 -21 34 -86 57 -80 29 -78 29 -87 19z"/>
<path d="M3030 2887 c0 -1 -4 -18 -10 -36 -7 -26 -7 -32 2 -23 11 11 55 -5 88
-33 8 -8 39 -23 69 -35 45 -17 59 -19 88 -9 35 11 53 40 53 82 0 18 -3 17 -16
-10 -11 -21 -24 -33 -37 -33 -21 0 -21 0 1 20 12 12 22 30 22 40 0 30 -43 26
-60 -5 -18 -33 -37 -32 -123 10 -72 35 -77 37 -77 32z"/>
<path d="M2147 2864 c3 -9 0 -20 -8 -26 -12 -8 -11 -9 1 -5 17 4 27 47 11 47
-6 0 -8 -7 -4 -16z"/>
<path d="M1499 2853 c-13 -16 -12 -17 4 -4 9 7 17 15 17 17 0 8 -8 3 -21 -13z"/>
<path d="M2482 2825 c-13 -28 -2 -34 18 -10 9 11 10 19 3 26 -6 6 -13 1 -21
-16z"/>
<path d="M3465 2840 c-3 -6 1 -7 9 -4 18 7 21 14 7 14 -6 0 -13 -4 -16 -10z"/>
<path d="M3405 2760 c-10 -11 -16 -22 -14 -24 2 -2 12 7 22 20 22 29 17 32 -8
4z"/>
<path d="M1369 2698 c-6 -13 -36 -49 -67 -80 -31 -32 -51 -58 -45 -58 12 0
143 139 143 152 0 16 -20 7 -31 -14z"/>
<path d="M4529 2674 c-24 -25 -75 -71 -114 -102 -38 -31 -72 -59 -75 -62 -22
-22 -133 -101 -165 -118 -22 -11 -54 -33 -72 -49 -34 -30 -141 -112 -204 -154
-37 -25 -119 -96 -215 -186 -22 -21 -76 -69 -120 -108 -43 -38 -110 -99 -149
-135 -107 -101 -182 -156 -421 -304 -43 -27 -99 -62 -123 -78 -25 -15 -51 -28
-58 -28 -7 0 -44 -14 -81 -31 -205 -95 -349 -141 -622 -198 -187 -39 -453 -54
-690 -39 -94 6 -102 5 -75 -8 17 -7 41 -11 53 -8 13 2 21 1 18 -4 -3 -5 11
-12 32 -15 74 -12 261 -20 279 -12 10 4 35 7 57 5 36 -2 107 8 221 31 28 5 61
10 75 9 13 0 78 14 145 31 66 17 138 36 160 41 146 33 502 203 730 350 146 94
194 131 401 306 92 78 83 68 -52 -58 -111 -104 -320 -268 -413 -325 -9 -5 -27
-17 -41 -26 -14 -9 -83 -47 -155 -83 -309 -158 -635 -254 -1004 -297 -103 -11
-386 -7 -461 7 l-35 7 32 -27 c18 -15 37 -25 42 -22 5 4 13 1 17 -5 4 -8 3 -9
-4 -5 -7 4 -12 2 -12 -4 0 -6 -4 -9 -9 -5 -5 3 -13 0 -17 -6 -5 -8 3 -10 25
-7 17 2 31 0 31 -5 0 -5 96 -7 243 -4 205 4 262 8 372 30 178 34 338 76 347
90 4 7 8 9 8 5 0 -4 37 6 83 22 199 69 231 81 261 94 17 8 40 17 51 21 65 24
151 9 250 -46 l55 -30 0 65 c0 37 0 67 0 69 -1 15 37 119 52 140 17 24 85 83
193 167 30 24 194 171 259 234 134 128 361 308 516 410 41 27 111 77 155 110
44 34 92 70 108 79 37 24 163 143 189 180 15 21 21 43 19 70 -3 59 -10 62 -40
20 -35 -49 -164 -168 -227 -211 l-49 -34 40 33 c111 93 247 240 233 254 -2 3
-24 -16 -49 -41z m-229 -248 c0 -2 -8 -10 -17 -17 -16 -13 -17 -12 -4 4 13 16
21 21 21 13z m-140 -100 c0 -2 -12 -11 -27 -20 l-28 -17 24 20 c23 21 31 25
31 17z m-60 -40 c0 -2 -8 -10 -17 -17 -16 -13 -17 -12 -4 4 13 16 21 21 21 13z
m-250 -190 c0 -2 -8 -10 -17 -17 -16 -13 -17 -12 -4 4 13 16 21 21 21 13z
m-60 -49 c0 -2 -12 -14 -27 -28 l-28 -24 24 28 c23 25 31 32 31 24z"/>
<path d="M2600 2696 c0 -2 9 -6 20 -9 11 -3 20 -1 20 4 0 5 -9 9 -20 9 -11 0
-20 -2 -20 -4z"/>
<path d="M1733 2668 c2 -7 8 -13 13 -13 5 -1 29 -8 54 -16 109 -39 111 -39
100 -18 -6 10 -17 19 -26 19 -8 0 -40 9 -71 20 -67 23 -76 24 -70 8z"/>
<path d="M1955 2650 c0 -15 3 -26 8 -23 4 2 7 13 7 23 0 10 -3 21 -7 23 -5 3
-8 -8 -8 -23z"/>
<path d="M2838 2635 c-4 -20 -2 -25 9 -21 8 4 53 -12 99 -34 94 -45 147 -56
185 -42 28 11 56 67 38 77 -5 4 -9 -1 -9 -9 0 -15 -36 -46 -54 -46 -5 0 1 11
13 24 25 26 25 59 0 64 -9 1 -20 -8 -27 -23 -15 -32 -45 -32 -137 1 -110 40
-112 40 -117 9z"/>
<path d="M3295 2630 c-3 -6 1 -7 9 -4 18 7 21 14 7 14 -6 0 -13 -4 -16 -10z"/>
<path d="M3270 2600 c-9 -6 -10 -10 -3 -10 6 0 15 5 18 10 8 12 4 12 -15 0z"/>
<path d="M4575 2519 c-56 -57 -303 -249 -405 -315 -164 -106 -387 -286 -570
-460 -125 -120 -220 -205 -301 -271 -37 -29 -78 -70 -91 -91 -29 -44 -43 -92
-27 -92 6 0 3 -7 -5 -16 -11 -10 -16 -34 -16 -69 0 -29 -3 -61 -7 -70 -5 -15
-3 -16 18 -5 40 21 208 148 304 229 230 194 395 322 616 476 315 220 496 364
549 436 35 49 54 133 45 200 l-7 49 -28 -38 c-50 -70 -230 -216 -520 -424
-169 -122 -234 -170 -326 -246 -55 -44 -116 -95 -135 -113 -19 -18 -92 -86
-164 -153 -71 -66 -131 -123 -133 -128 -2 -4 -8 -8 -13 -8 -6 0 -24 -13 -42
-30 -18 -16 -35 -30 -39 -30 -4 0 -23 -14 -43 -31 -19 -17 -35 -26 -35 -20 0
6 28 31 63 56 63 47 214 178 367 320 92 85 232 201 319 263 29 20 89 64 134
98 45 33 132 96 192 139 152 108 327 257 359 305 16 24 23 46 19 56 -5 12 -3
15 6 9 10 -6 11 -3 2 14 -7 11 -15 21 -19 21 -4 0 -34 -28 -67 -61z"/>
<path d="M3240 2559 c0 -5 5 -7 10 -4 6 3 10 8 10 11 0 2 -4 4 -10 4 -5 0 -10
-5 -10 -11z"/>
<path d="M2271 2523 c-1 -6 -13 -26 -28 -45 l-26 -33 32 31 c19 18 31 38 28
45 -3 9 -6 9 -6 2z"/>
<path d="M3210 2520 c-9 -6 -10 -10 -3 -10 6 0 15 5 18 10 8 12 4 12 -15 0z"/>
<path d="M2657 2489 c7 -7 15 -10 18 -7 3 3 -2 9 -12 12 -14 6 -15 5 -6 -5z"/>
<path d="M1134 2461 c-1 -16 -15 -46 -34 -70 -50 -62 -30 -60 39 3 33 31 66
56 73 56 14 1 -26 24 -57 34 -17 5 -20 1 -21 -23z"/>
<path d="M2698 2460 c-3 -20 -1 -27 5 -21 6 6 23 1 48 -15 21 -13 41 -24 43
-24 3 0 28 -13 56 -30 61 -36 103 -39 124 -8 9 12 16 32 16 43 0 18 -1 18 -13
-4 -17 -34 -39 -45 -73 -36 -30 8 -28 9 17 19 30 7 44 40 23 57 -10 8 -19 7
-36 -5 -32 -23 -50 -20 -128 19 -38 19 -71 35 -74 35 -2 0 -6 -14 -8 -30z"/>
<path d="M1560 2471 c0 -6 3 -10 8 -9 8 2 79 -18 135 -37 34 -12 36 -12 28 3
-5 9 -33 21 -63 27 -29 7 -65 15 -80 20 -19 5 -28 3 -28 -4z"/>
<path d="M1792 2460 c0 -14 2 -19 5 -12 2 6 2 18 0 25 -3 6 -5 1 -5 -13z"/>
<path d="M3484 2419 c-16 -17 -63 -46 -104 -66 -41 -19 -83 -42 -92 -51 -16
-14 -18 -13 -18 3 0 10 20 37 45 61 25 23 45 50 45 59 0 17 -2 16 -23 -3 -13
-12 -28 -22 -34 -22 -21 0 -75 -54 -89 -87 -30 -70 -10 -156 42 -184 31 -16
57 -5 49 21 -6 18 -3 19 24 14 26 -6 32 -3 40 20 9 22 14 24 34 17 31 -12 50
0 45 29 -2 18 5 28 30 43 18 11 35 17 38 14 3 -3 -8 -13 -25 -22 -17 -8 -31
-22 -31 -31 0 -14 2 -14 16 0 8 9 20 13 26 10 7 -4 8 -2 4 4 -4 7 -5 12 -2 12
2 0 12 3 22 7 12 4 15 3 10 -5 -4 -7 -1 -12 8 -12 10 0 13 6 10 15 -5 11 3 17
27 22 31 6 31 7 10 15 -13 4 -28 5 -34 1 -7 -3 -4 3 6 14 9 11 17 25 17 31 0
18 -20 25 -35 12 -12 -10 -15 -9 -15 3 0 11 -5 14 -17 10 -17 -6 -17 -5 -2 13
27 32 29 41 16 53 -10 8 -21 3 -43 -20z"/>
<path d="M3715 2440 c-3 -6 1 -7 9 -4 18 7 21 14 7 14 -6 0 -13 -4 -16 -10z"/>
<path d="M2199 2423 c-13 -16 -12 -17 4 -4 9 7 17 15 17 17 0 8 -8 3 -21 -13z"/>
<path d="M1424 2355 c11 -8 22 -12 25 -9 6 6 -19 24 -34 24 -5 -1 -1 -7 9 -15z"/>
<path d="M3325 2360 c-3 -6 1 -7 9 -4 18 7 21 14 7 14 -6 0 -13 -4 -16 -10z"/>
<path d="M1470 2324 c0 -8 5 -12 11 -8 6 3 14 3 18 -2 3 -5 29 -23 58 -41 42
-25 50 -28 40 -12 -10 17 -106 79 -122 79 -3 0 -5 -7 -5 -16z"/>
<path d="M3031 2317 c-13 -21 -12 -21 5 -5 10 10 16 20 13 22 -3 3 -11 -5 -18
-17z"/>
<path d="M3580 2320 c0 -5 5 -10 10 -10 6 0 10 5 10 10 0 6 -4 10 -10 10 -5 0
-10 -4 -10 -10z"/>
<path d="M1652 2295 c-9 -20 -9 -23 3 -18 8 3 15 14 15 24 0 25 -5 24 -18 -6z"/>
<path d="M2060 2245 c-17 -25 -30 -48 -28 -51 2 -2 21 13 41 34 25 25 34 41
28 51 -6 10 -17 1 -41 -34z"/>
<path d="M2405 2259 c44 -14 65 -17 78 -9 14 9 17 6 17 -16 0 -22 2 -25 15
-14 8 7 15 8 15 3 0 -6 17 -18 39 -27 21 -10 58 -31 82 -47 24 -16 56 -29 70
-29 30 0 59 28 58 56 0 17 -1 16 -9 -3 -10 -25 -51 -39 -77 -27 -16 7 -16 8 3
11 30 5 56 36 48 57 -9 23 -31 20 -50 -9 l-16 -25 -78 40 c-77 41 -94 45 -200
54 l-55 4 60 -19z"/>
<path d="M3447 2195 c-10 -7 -27 -11 -38 -8 -13 4 -25 -2 -35 -16 -8 -11 -24
-21 -34 -21 -10 0 -22 -9 -25 -21 -7 -22 -33 -23 -80 -4 -17 8 -18 7 -7 -7 7
-9 27 -21 43 -27 27 -9 31 -8 41 14 6 14 18 25 26 25 7 0 25 9 39 20 14 11 36
20 48 20 12 0 28 7 35 15 17 21 9 27 -13 10z"/>
<path d="M3406 2152 c-3 -5 1 -9 9 -9 8 0 12 4 9 9 -3 4 -7 8 -9 8 -2 0 -6 -4
-9 -8z"/>
<path d="M1894 2073 c-4 -16 -29 -52 -56 -82 -106 -116 -74 -117 53 -1 45 41
89 78 98 81 11 4 3 10 -24 18 -57 16 -64 14 -71 -16z"/>
<path d="M2167 2024 c17 -7 34 -18 37 -23 4 -5 27 -13 51 -17 37 -5 45 -10 45
-27 0 -11 3 -17 6 -14 4 3 16 1 28 -5 29 -16 178 -68 194 -68 16 0 62 45 62
61 0 6 -8 2 -17 -9 -19 -23 -73 -41 -73 -25 0 6 11 15 25 21 28 13 36 62 10
62 -8 0 -15 -4 -15 -10 0 -5 -9 -14 -20 -20 -16 -8 -39 -5 -103 16 -207 66
-303 90 -230 58z"/>
<path d="M3360 1909 c0 -5 5 -7 10 -4 6 3 10 8 10 11 0 2 -4 4 -10 4 -5 0 -10
-5 -10 -11z"/>
<path d="M520 1604 c0 -8 62 -35 72 -32 6 2 -8 11 -31 20 -22 9 -41 15 -41 12z"/>
<path d="M2280 1598 c0 -14 58 -127 78 -153 31 -39 59 -132 46 -153 -6 -9 -30
-26 -54 -38 -25 -13 -38 -24 -31 -28 6 -4 11 -3 11 3 0 6 6 8 13 5 17 -6 144
36 254 84 48 22 109 48 135 58 53 21 58 35 33 84 -18 34 -36 40 -28 10 4 -16
0 -20 -21 -20 -17 0 -25 -4 -21 -11 4 -6 1 -9 -6 -7 -8 1 -25 -5 -39 -14 -34
-23 -157 -61 -170 -53 -5 3 -10 -1 -10 -10 0 -9 -5 -13 -10 -10 -6 4 -8 16 -4
27 5 17 3 20 -11 15 -9 -4 -19 -7 -21 -7 -3 0 -2 -6 2 -12 5 -9 2 -9 -9 1 -9
7 -17 17 -17 21 0 4 -27 54 -60 111 -33 57 -60 101 -60 97z"/>
<path d="M620 1570 c0 -12 117 -30 186 -29 l59 1 -45 9 c-25 6 -57 8 -72 6
-16 -2 -28 0 -28 5 0 5 -12 8 -27 7 -16 0 -38 2 -50 4 -13 3 -23 2 -23 -3z"/>
<path d="M898 1543 c12 -2 32 -2 45 0 12 2 2 4 -23 4 -25 0 -35 -2 -22 -4z"/>
<path d="M628 1523 c7 -3 16 -2 19 1 4 3 -2 6 -13 5 -11 0 -14 -3 -6 -6z"/>
<path d="M2710 1479 c0 -11 4 -18 10 -14 5 3 7 12 3 20 -7 21 -13 19 -13 -6z"/>
<path d="M699 1393 c-13 -16 -12 -17 4 -4 9 7 17 15 17 17 0 8 -8 3 -21 -13z"/>
<path d="M583 1385 c0 -8 4 -12 9 -9 5 3 6 10 3 15 -9 13 -12 11 -12 -6z"/>
<path d="M798 1343 c-27 -26 -92 -41 -85 -19 2 6 9 12 15 12 7 1 18 2 25 3 8
1 8 4 -3 11 -9 6 -19 5 -29 -3 -8 -7 -17 -12 -20 -12 -3 0 -5 -4 -3 -9 2 -5
-5 -18 -15 -30 -10 -11 -14 -18 -9 -14 5 4 15 3 23 -4 7 -6 16 -8 20 -4 3 3 1
6 -6 6 -7 0 -9 5 -6 11 5 6 11 4 19 -7 13 -17 41 -11 30 7 -3 5 -10 6 -16 3
-7 -5 -8 -2 -4 5 5 7 14 10 21 7 7 -2 23 6 35 19 22 24 47 25 33 2 -4 -7 1 -6
10 2 13 10 15 17 6 27 -14 17 -10 19 -41 -13z"/>
<path d="M869 1343 c-13 -16 -12 -17 4 -4 9 7 17 15 17 17 0 8 -8 3 -21 -13z"/>
<path d="M619 1343 c-1 -5 -1 -11 0 -15 1 -8 -15 -12 -33 -9 -11 2 12 -29 34
-45 8 -7 20 -10 27 -7 7 3 13 1 13 -5 0 -5 15 -13 33 -17 48 -12 61 -12 76 -1
11 8 13 8 7 -1 -4 -8 -2 -13 6 -14 7 0 22 -2 33 -4 20 -4 38 13 28 28 -3 4
-13 1 -23 -8 -16 -15 -18 -15 -24 0 -3 9 -4 21 -1 25 3 5 -3 7 -12 5 -10 -2
-22 -4 -26 -4 -5 -1 -5 -6 -1 -12 5 -8 1 -8 -13 0 -11 6 -23 8 -26 4 -4 -3
-14 0 -24 8 -15 12 -16 12 -8 -1 6 -12 5 -13 -5 -3 -16 15 -22 43 -10 43 5 0
8 8 7 19 0 11 -7 18 -17 16 -8 -1 -14 -8 -12 -15 1 -6 -3 -10 -10 -7 -7 2 -12
10 -10 16 1 6 0 11 -3 11 -3 0 -6 -3 -6 -7z m42 -27 c-6 -7 -8 -15 -5 -19 3
-3 -6 -4 -20 -3 -30 4 -47 15 -25 17 8 1 21 2 29 3 8 0 14 7 12 14 -1 8 2 11
8 7 8 -5 8 -11 1 -19z"/>
<path d="M866 1312 c-3 -5 1 -9 9 -9 8 0 12 4 9 9 -3 4 -7 8 -9 8 -2 0 -6 -4
-9 -8z"/>
<path d="M785 1299 c-3 -4 2 -6 10 -5 21 3 28 13 10 13 -9 0 -18 -4 -20 -8z"/>
<path d="M822 1280 c-12 -12 -22 -24 -22 -27 0 -3 8 1 18 10 10 10 21 15 24
12 2 -3 5 2 5 10 0 19 1 19 -25 -5z"/>
<path d="M869 1265 c-1 -3 -2 -8 -3 -12 -1 -5 -5 -15 -10 -23 -6 -9 -1 -8 12
4 12 10 19 23 16 27 -6 10 -13 12 -15 4z"/>
<path d="M889 1233 c-12 -16 -12 -17 2 -6 12 10 18 10 29 0 12 -10 12 -9 1 6
-7 9 -15 17 -16 17 -1 0 -9 -8 -16 -17z"/>
<path d="M2879 1194 c-1 -5 -1 -13 0 -18 1 -5 -5 -3 -14 4 -10 8 -19 10 -23 4
-4 -5 -13 -9 -19 -10 -29 -2 -33 -5 -33 -20 0 -8 4 -13 9 -9 5 3 12 1 15 -4 4
-5 -1 -8 -10 -7 -8 1 -19 8 -24 15 -6 10 -12 11 -26 2 -11 -6 -13 -11 -6 -11
7 0 10 -4 7 -10 -4 -6 1 -7 11 -3 13 5 15 3 9 -7 -6 -10 -4 -12 8 -7 30 11 18
-2 -15 -18 -31 -15 -32 -15 -13 1 20 16 20 16 -2 11 -15 -3 -20 -1 -17 8 3 7
-2 15 -10 18 -9 4 -16 2 -16 -4 0 -6 -7 -8 -16 -5 -9 3 -12 2 -9 -5 4 -6 13
-8 21 -5 8 3 13 2 13 -2 -1 -4 0 -9 1 -12 1 -3 3 -13 5 -22 3 -14 0 -16 -15
-8 -9 5 -21 6 -25 2 -5 -4 -5 -2 -1 5 4 7 14 9 24 6 25 -9 12 2 -27 22 -20 10
-30 12 -26 4 6 -9 2 -11 -13 -7 -14 4 -20 2 -15 -5 4 -7 0 -8 -11 -4 -11 4
-15 3 -10 -4 4 -8 -1 -9 -16 -4 -17 5 -21 4 -15 -6 6 -9 3 -11 -9 -6 -11 5
-15 3 -10 -5 5 -8 2 -9 -10 -5 -14 6 -17 3 -12 -9 3 -8 6 -18 6 -20 0 -2 9 5
20 16 24 24 48 26 56 5 4 -8 10 -15 16 -15 5 0 7 4 3 10 -3 5 7 3 22 -5 15 -8
27 -17 25 -21 -2 -3 5 -12 15 -20 10 -8 -6 -3 -35 11 -43 21 -53 23 -58 11 -8
-20 -32 -28 -40 -13 -4 7 -3 9 1 4 9 -8 45 20 45 35 0 12 -43 -1 -53 -16 -4
-6 -5 -19 -3 -30 5 -18 4 -18 -13 0 -10 11 -16 25 -13 32 2 6 -1 12 -7 12 -14
0 -14 -23 0 -37 6 -6 8 -16 4 -22 -9 -16 -28 -2 -21 15 5 14 -5 18 -33 15 -11
-2 -11 0 0 12 10 11 16 12 21 3 6 -8 8 -8 8 1 0 16 -17 26 -25 13 -4 -6 -11
-8 -16 -4 -5 3 -9 2 -8 -3 3 -20 -2 -34 -11 -28 -6 4 -8 10 -6 14 3 4 -1 8 -9
8 -8 0 -12 -4 -9 -9 3 -4 0 -8 -5 -8 -6 0 -11 -6 -11 -14 0 -16 -73 -38 -111
-33 -20 3 -25 0 -25 -17 1 -12 5 -24 9 -27 5 -3 2 -9 -7 -12 -9 -4 -15 -1 -13
6 1 7 -4 11 -10 9 -7 -1 -13 3 -13 9 0 6 7 9 15 5 8 -3 15 -2 15 2 0 15 -74
28 -97 17 -23 -10 -32 -35 -12 -35 5 0 7 5 4 10 -3 6 -2 10 3 10 11 0 9 -86
-2 -98 -4 -4 -7 -2 -6 3 5 22 -1 31 -21 32 -20 2 -20 1 -4 -17 12 -13 13 -20
4 -26 -7 -4 -10 -3 -6 3 4 6 0 16 -8 23 -18 15 -11 30 15 30 10 0 21 4 24 9 3
5 -2 8 -12 7 -12 -1 -17 6 -16 26 1 15 -3 25 -7 22 -5 -3 -9 -11 -9 -17 0 -7
-9 -18 -20 -25 -17 -10 -20 -10 -20 3 0 8 3 14 8 13 4 -2 8 1 10 6 1 6 -4 11
-13 12 -8 1 -13 -2 -9 -7 3 -5 -1 -9 -10 -9 -8 0 -17 -6 -19 -12 -3 -8 -6 -6
-6 5 -1 9 -8 17 -17 17 -10 0 -14 -7 -12 -22 2 -18 -1 -22 -18 -20 -12 2 -24
-4 -27 -13 -4 -10 0 -15 11 -16 14 0 14 -2 2 -6 -8 -3 -18 -10 -21 -15 -4 -6
-19 -3 -37 6 -17 9 -39 13 -48 9 -13 -5 -16 -3 -11 10 4 11 1 17 -8 17 -8 0
-13 -6 -11 -12 1 -7 1 -10 -1 -5 -3 4 -14 7 -26 7 -20 -1 -20 -2 -4 -11 9 -6
15 -15 11 -21 -4 -6 2 -8 17 -3 19 5 21 4 9 -4 -13 -9 -13 -11 -1 -11 11 0 9
-4 -5 -14 -14 -11 -21 -11 -26 -3 -7 11 -12 3 -10 -14 1 -3 -5 -6 -13 -6 -8 0
-12 4 -9 9 6 10 -10 11 -20 1 -4 -5 -12 -9 -17 -9 -22 -3 -23 -6 -4 -13 18 -7
17 -8 -7 -13 -24 -4 -26 -3 -17 14 5 10 7 24 3 30 -5 7 -3 8 6 3 9 -6 11 -4 5
5 -6 9 -4 11 6 6 8 -4 6 -1 -4 7 -12 10 -14 17 -8 22 6 3 11 1 11 -5 0 -6 5
-8 12 -4 6 4 8 3 5 -2 -3 -6 -2 -16 2 -23 6 -10 15 -6 36 13 22 21 24 26 11
26 -25 0 -14 23 15 32 17 5 12 6 -18 4 -34 -3 -40 0 -36 13 4 14 3 14 -9 0
-21 -24 -48 -31 -48 -12 0 14 -2 14 -16 -3 -8 -10 -13 -14 -10 -7 4 6 1 15 -5
19 -8 4 -9 3 -5 -4 7 -12 -2 -16 -41 -14 -13 1 -22 -4 -20 -10 1 -6 -6 -12
-15 -13 -22 -4 -24 11 -3 19 8 3 15 11 15 17 0 8 -5 7 -16 -2 -9 -8 -24 -14
-33 -14 -9 0 -15 -5 -14 -11 1 -6 -5 -11 -13 -11 -17 0 -19 14 -2 19 9 3 9 6
0 12 -7 4 -12 3 -12 -3 0 -5 -12 -8 -26 -5 -18 3 -31 -1 -40 -13 -12 -15 -13
-15 -8 -2 3 10 0 20 -6 24 -9 6 -9 10 1 16 8 5 9 9 3 9 -6 0 -17 -7 -24 -16
-11 -12 -11 -15 0 -12 7 2 15 -3 18 -11 2 -8 0 -11 -6 -8 -5 4 -15 1 -21 -7
-9 -11 -6 -13 20 -11 33 3 27 -14 -7 -19 -11 -2 -19 -8 -19 -14 0 -12 -34 -41
-49 -42 -5 0 -3 6 3 14 7 8 8 17 3 20 -6 3 -15 -1 -22 -8 -9 -12 -7 -18 12
-30 13 -8 32 -16 43 -18 11 -2 23 -7 26 -11 3 -5 57 -18 120 -29 279 -49 711
10 1116 152 158 56 365 149 463 209 l31 19 -55 32 c-31 17 -66 33 -78 34 -13
2 -31 7 -41 11 -12 5 -25 1 -40 -11 -14 -12 -17 -13 -9 -3 12 16 7 29 -10 29
-5 0 -6 -6 -2 -12 5 -9 2 -9 -9 1 -9 7 -18 10 -18 5z m2 -39 c17 11 9 -2 -13
-21 -16 -13 -19 -14 -10 -2 13 16 1 35 -16 24 -4 -2 -14 0 -22 6 -12 8 -12 9
2 4 10 -3 20 0 24 6 4 7 10 5 16 -6 5 -9 13 -14 19 -11z m79 -1 c0 -8 -19 -13
-24 -6 -3 5 1 9 9 9 8 0 15 -2 15 -3z m27 -9 c0 -8 -4 -12 -9 -9 -5 3 -6 10
-3 15 9 13 12 11 12 -6z m-90 -20 c0 -8 -4 -12 -9 -9 -5 3 -6 10 -3 15 9 13
12 11 12 -6z m-62 -13 c-3 -3 3 -11 13 -19 15 -13 15 -13 -5 -3 -28 13 -37 27
-18 27 8 0 13 -3 10 -5z m91 -14 c4 -7 4 -10 -1 -6 -4 4 -15 2 -24 -5 -14 -11
-14 -10 -2 6 16 20 18 21 27 5z m-219 -44 c-3 -3 -12 -4 -19 -1 -8 3 -5 6 6 6
11 1 17 -2 13 -5z m53 2 c0 -2 -6 -9 -14 -15 -11 -9 -16 -9 -22 0 -4 7 -3 9 4
5 6 -3 13 -2 17 4 6 10 15 14 15 6z m65 -35 c3 -5 2 -12 -3 -15 -5 -3 -9 1 -9
9 0 17 3 19 12 6z m-389 -23 c4 -7 3 -8 -4 -4 -17 10 -15 -7 4 -30 10 -13 14
-14 11 -4 -5 17 11 44 29 47 7 1 14 -6 17 -17 3 -11 2 -19 -2 -18 -18 2 -31
-3 -31 -13 0 -5 5 -7 12 -3 6 4 8 3 5 -4 -4 -5 -15 -9 -25 -7 -9 1 -24 -2 -32
-8 -8 -6 -12 -7 -8 -3 4 5 3 15 -3 22 -11 14 -3 54 11 54 5 0 12 -5 16 -12z
m110 -30 c4 -7 4 -10 -1 -6 -4 4 -17 3 -29 -3 -20 -10 -20 -10 -2 5 24 19 23
19 32 4z m-326 -20 c0 -5 -8 -4 -19 1 -10 6 -22 7 -26 3 -5 -4 -5 -2 -2 5 8
13 47 6 47 -9z m140 12 c-8 -5 -19 -10 -25 -10 -5 0 -3 5 5 10 8 5 20 10 25
10 6 0 3 -5 -5 -10z m235 1 c3 -5 2 -12 -3 -15 -5 -3 -9 1 -9 9 0 17 3 19 12
6z m-286 -23 c-5 -10 -12 -18 -15 -18 -3 0 -2 5 2 11 3 6 0 15 -7 20 -10 6 -8
8 8 6 17 -1 20 -5 12 -19z m81 12 c0 -5 -5 -10 -11 -10 -5 0 -7 5 -4 10 3 6 8
10 11 10 2 0 4 -4 4 -10z m79 -23 c-2 -2 -11 -8 -20 -15 -12 -9 -16 -9 -16 1
0 7 9 14 20 14 11 1 18 1 16 0z m-239 -17 c-13 -8 -13 -10 2 -10 9 0 19 -4 22
-8 3 -5 -8 -6 -25 -4 -22 3 -29 1 -27 -9 2 -8 7 -17 13 -21 5 -4 0 -6 -12 -5
-12 0 -19 6 -15 12 11 18 11 35 -1 35 -21 0 10 16 35 17 18 2 20 0 8 -7z
m-175 -10 c4 -6 10 -8 15 -5 5 3 12 0 16 -6 4 -7 3 -9 -4 -5 -7 4 -10 -1 -9
-14 1 -21 12 -27 20 -10 3 6 4 5 3 -2 -2 -7 6 -18 18 -25 20 -11 19 -11 -6
-10 -14 1 -24 5 -22 8 2 4 -3 10 -12 13 -9 4 -14 9 -10 13 3 3 -4 11 -16 17
-12 6 -23 17 -26 24 -4 14 24 16 33 2z m313 -7 c-12 -15 -22 -18 -14 -4 4 5 0
11 -6 14 -7 3 -3 4 9 4 17 -1 19 -4 11 -14z m-605 -6 c7 3 9 3 5 -2 -4 -4 -3
-14 4 -22 7 -9 0 -7 -21 4 -36 20 -50 10 -45 -33 1 -15 -3 -24 -11 -24 -8 0
-17 -5 -21 -12 -5 -8 -2 -9 10 -5 10 4 15 3 11 -3 -8 -12 -35 -13 -35 -1 0 5
7 14 15 21 9 7 14 19 11 27 -4 8 -1 11 5 7 8 -4 7 0 0 15 -7 11 -10 21 -9 22
2 0 14 3 27 5 14 2 27 7 30 10 3 3 7 0 9 -5 2 -6 9 -8 15 -4z m-269 -9 c-3 -5
-10 -5 -16 -2 -7 5 -8 2 -3 -6 5 -9 4 -11 -3 -6 -19 11 -14 25 7 23 11 0 17
-5 15 -9z m94 -19 c14 0 14 -2 2 -7 -30 -14 -70 -45 -70 -54 0 -6 15 1 34 15
18 15 36 24 39 21 3 -3 14 -1 24 5 11 6 13 11 5 11 -7 0 -10 5 -7 10 3 6 17 8
31 6 14 -3 22 -1 19 5 -4 5 -10 7 -15 4 -5 -3 -11 -2 -14 3 -2 4 4 8 14 9 32
3 39 -58 7 -63 -10 -1 -15 2 -11 7 3 5 10 7 15 4 5 -4 9 -4 9 -1 0 3 -10 10
-21 17 -13 7 -19 7 -15 1 4 -6 -1 -15 -10 -20 -15 -9 -15 -10 6 -17 20 -6 21
-9 7 -17 -9 -5 -20 -9 -24 -9 -5 -1 -16 -5 -27 -11 -14 -8 -17 -7 -11 2 5 8 3
11 -6 8 -8 -3 -13 -11 -11 -17 1 -7 -2 -10 -8 -6 -8 5 -7 11 1 21 7 8 7 14 1
14 -15 0 -33 -26 -24 -35 4 -5 1 -5 -6 -1 -7 4 -10 11 -7 16 3 5 0 12 -6 16
-8 4 -7 9 2 15 12 7 11 9 0 9 -11 0 -10 4 4 13 17 13 17 14 -2 12 -12 0 -31
-8 -44 -17 l-24 -16 25 3 c20 2 26 -2 26 -17 0 -18 -1 -18 -12 -3 -7 10 -18
14 -24 10 -9 -6 -9 -10 1 -16 8 -5 10 -9 4 -10 -5 0 -18 -2 -28 -4 -15 -3 -16
-1 -6 11 14 17 -2 19 -21 2 -12 -11 -12 -10 -1 5 9 12 10 17 2 17 -6 0 -14 -7
-17 -15 -4 -8 -10 -12 -16 -9 -5 3 0 13 11 21 12 8 18 19 15 25 -5 7 -2 8 5 4
7 -5 21 0 32 10 10 9 22 14 26 11 3 -4 13 -1 21 6 12 9 16 9 19 0 2 -7 12 -9
20 -6 13 5 15 2 10 -11 -5 -12 -3 -16 5 -13 7 2 12 17 11 33 -2 24 0 26 8 12
5 -10 18 -18 27 -19z m418 16 c-1 -8 -5 -17 -8 -21 -5 -4 -4 16 1 34 3 9 9 -1
7 -13z m285 -22 c13 -16 12 -17 -3 -4 -17 13 -22 21 -14 21 2 0 10 -8 17 -17z
m-391 -3 c0 -5 -2 -10 -4 -10 -3 0 -8 5 -11 10 -3 6 -1 10 4 10 6 0 11 -4 11
-10z m65 -22 c7 -7 2 -8 -14 -3 -16 5 -21 4 -17 -4 5 -7 1 -8 -10 -4 -13 5
-14 8 -5 11 11 4 11 6 0 14 -10 6 -6 7 11 3 14 -4 30 -12 35 -17z m-98 -13 c0
-8 -4 -12 -9 -9 -5 3 -6 10 -3 15 9 13 12 11 12 -6z m148 5 c4 -6 10 -8 15 -5
5 3 11 1 14 -4 7 -10 -20 -9 -30 2 -15 15 -26 6 -13 -10 13 -16 12 -17 -3 -4
-10 7 -15 17 -12 22 7 12 21 11 29 -1z m-183 -34 c7 4 8 2 4 -4 -4 -6 -13 -9
-21 -6 -8 4 -12 11 -8 17 5 8 8 7 11 -1 2 -7 9 -9 14 -6z m-178 -12 c3 -8 2
-12 -4 -9 -6 3 -10 10 -10 16 0 14 7 11 14 -7z m119 3 c3 -8 -1 -14 -8 -14 -7
0 -11 6 -8 14 3 7 6 13 8 13 2 0 5 -6 8 -13z m91 -3 c3 -8 2 -12 -4 -9 -6 3
-10 10 -10 16 0 14 7 11 14 -7z m156 0 c0 -8 -19 -13 -24 -6 -3 5 1 9 9 9 8 0
15 -2 15 -3z"/>
<path d="M2455 980 c-3 -6 1 -7 9 -4 18 7 21 14 7 14 -6 0 -13 -4 -16 -10z"/>
<path d="M2410 971 c0 -6 4 -13 10 -16 6 -3 7 1 4 9 -7 18 -14 21 -14 7z"/>
<path d="M2037 889 c7 -7 15 -10 18 -7 3 3 -2 9 -12 12 -14 6 -15 5 -6 -5z"/>
<path d="M1436 831 c-15 -17 -15 -19 -1 -25 10 -3 14 -2 10 5 -4 5 -1 16 5 24
18 22 6 18 -14 -4z"/>
<path d="M1570 815 c-7 -8 -9 -16 -4 -16 39 -6 55 -5 61 4 3 6 1 7 -5 3 -7 -4
-12 -2 -12 5 0 8 -4 8 -15 -1 -13 -11 -14 -10 -9 4 8 20 0 21 -16 1z"/>
<path d="M2075 1170 c-3 -5 -1 -10 4 -10 6 0 11 5 11 10 0 6 -2 10 -4 10 -3 0
-8 -4 -11 -10z"/>
<path d="M1274 1106 c11 -9 24 -16 30 -16 12 0 7 5 -24 19 -24 11 -24 11 -6
-3z"/>
<path d="M2351 1012 c-1 -7 -5 -10 -11 -7 -5 3 -10 2 -10 -4 0 -5 -8 -12 -17
-14 -15 -4 -15 -5 2 -5 11 -1 34 6 50 14 17 8 22 12 13 10 -9 -3 -19 0 -22 7
-3 9 -5 8 -5 -1z"/>
<path d="M2260 996 c0 -2 7 -6 15 -10 8 -3 15 -1 15 4 0 6 -7 10 -15 10 -8 0
-15 -2 -15 -4z"/>
<path d="M2220 986 c0 -2 7 -7 16 -10 8 -3 12 -2 9 4 -6 10 -25 14 -25 6z"/>
<path d="M1923 926 c-3 -5 -1 -6 5 -2 7 4 12 2 12 -3 0 -15 12 -14 33 2 15 11
14 12 -13 12 -17 1 -34 -3 -37 -9z"/>
<path d="M1464 918 c-11 -4 3 -5 30 -2 31 4 46 2 42 -4 -4 -6 2 -8 15 -5 16 4
18 8 7 14 -15 10 -67 9 -94 -3z"/>
<path d="M1776 922 c-3 -5 5 -7 17 -5 26 5 80 -13 73 -25 -2 -4 4 -8 14 -8 10
0 17 4 14 7 -7 13 11 18 26 8 10 -6 11 -9 3 -9 -7 0 -13 -5 -13 -11 0 -5 5 -7
10 -4 6 3 10 1 10 -6 0 -16 13 -3 16 15 1 8 -10 19 -25 26 -33 15 -137 24
-145 12z m109 -12 c3 -5 1 -10 -4 -10 -6 0 -11 5 -11 10 0 6 2 10 4 10 3 0 8
-4 11 -10z"/>
<path d="M1344 888 c-3 -5 -3 -12 0 -15 3 -4 6 -1 6 6 0 7 5 9 10 6 6 -4 7
-12 3 -18 -4 -7 1 -6 10 2 10 8 15 16 12 19 -10 10 -35 10 -41 0z"/>
<path d="M1789 832 c-11 -14 -11 -15 0 -5 7 6 20 9 27 6 8 -3 14 -3 14 0 0 14
-30 14 -41 -1z"/>
</g>
</svg>
