<?xml version="1.0" standalone="no"?>
<!DOCTYPE svg PUBLIC "-//W3C//DTD SVG 20010904//EN"
 "http://www.w3.org/TR/2001/REC-SVG-20010904/DTD/svg10.dtd">
<svg version="1.0" xmlns="http://www.w3.org/2000/svg"
 width="500.000000pt" height="500.000000pt" viewBox="0 0 500.000000 500.000000"
 preserveAspectRatio="xMidYMid meet">

<g transform="translate(0.000000,500.000000) scale(0.100000,-0.100000)"
fill="#000000" stroke="none">
<path d="M3421 4289 c-23 -41 -22 -99 2 -99 6 0 3 -6 -7 -13 -17 -12 -17 -14
1 -28 16 -13 17 -12 5 2 -10 14 -10 18 1 22 25 9 49 139 29 151 -5 3 -19 -13
-31 -35z"/>
<path d="M3391 4194 c0 -11 3 -14 6 -6 3 7 2 16 -1 19 -3 4 -6 -2 -5 -13z"/>
<path d="M3213 3967 c-4 -6 -1 -7 8 -2 8 5 11 4 6 0 -4 -5 -18 -10 -30 -12
-112 -14 -197 -44 -247 -87 -20 -17 -22 -18 -10 -2 14 18 14 19 -8 7 -12 -7
-20 -17 -16 -22 4 -7 -1 -7 -14 0 -30 16 -39 14 -16 -4 19 -15 19 -15 -1 -8
-13 4 -4 -11 27 -44 26 -28 53 -66 61 -85 12 -29 23 -37 72 -53 112 -35 206 2
236 93 15 45 7 158 -14 198 -15 30 -42 40 -54 21z"/>
<path d="M3178 3963 c7 -3 16 -2 19 1 4 3 -2 6 -13 5 -11 0 -14 -3 -6 -6z"/>
<path d="M3507 3753 c-7 -71 -48 -203 -122 -388 -24 -60 -58 -159 -75 -220
l-32 -110 -100 -80 c-55 -44 -157 -136 -227 -205 -70 -69 -100 -100 -67 -69
111 102 352 306 393 332 42 26 130 98 198 162 33 30 30 29 -14 -7 -29 -23 -75
-60 -102 -81 l-50 -38 7 28 c18 74 58 205 88 287 65 175 108 321 113 388 3 37
4 68 1 68 -3 0 -8 -30 -11 -67z"/>
<path d="M2677 3682 c-16 -25 -21 -40 -12 -32 17 14 49 70 43 75 -2 2 -16 -18
-31 -43z"/>
<path d="M2845 3641 c-21 -10 -114 -101 -103 -101 4 0 28 18 54 41 68 59 99
66 176 43 40 -12 68 -16 138 -19 l75 -4 -65 9 c-36 4 -78 13 -93 19 -39 15
-158 23 -182 12z"/>
<path d="M2847 3527 c-22 -28 -18 -51 11 -55 24 -4 43 28 34 60 -6 24 -23 22
-45 -5z"/>
<path d="M3000 3542 c0 -4 -26 -40 -57 -79 -32 -39 -73 -91 -91 -115 -18 -23
-51 -67 -73 -96 -35 -46 -39 -55 -27 -70 11 -15 11 -15 -3 -5 -13 11 -21 6
-49 -35 -19 -26 -37 -49 -40 -52 -4 -3 -42 -54 -85 -115 -43 -60 -95 -130
-115 -155 -60 -73 -128 -189 -135 -231 -7 -42 7 -85 18 -55 4 9 2 16 -3 16 -6
0 -10 5 -10 10 0 6 6 10 14 10 8 0 18 5 22 12 5 8 2 9 -9 5 -14 -5 -15 -3 -5
18 6 13 16 22 21 18 6 -4 8 0 4 10 -3 9 0 18 9 21 9 3 12 10 9 16 -4 6 1 7 11
3 14 -5 16 -3 11 11 -5 11 -3 15 5 10 8 -5 9 -2 5 10 -4 10 -3 15 3 11 6 -3
10 -1 10 5 0 6 4 8 10 5 5 -3 7 0 4 8 -6 16 21 42 34 33 6 -3 9 2 8 11 0 10 9
20 24 24 14 4 18 7 9 8 -20 1 -33 28 -18 37 6 3 17 -2 26 -12 13 -17 13 -16
-1 7 -15 27 -15 27 15 25 l31 -2 -24 18 c-18 14 -19 17 -4 11 13 -4 17 -3 12
5 -4 7 1 10 16 7 22 -4 22 -4 4 10 -18 14 -18 15 -2 15 10 0 14 4 10 12 -5 8
0 9 14 6 12 -4 20 -2 16 3 -3 5 -1 9 5 9 5 0 8 12 5 26 -4 21 -1 25 10 21 9
-4 18 -1 22 5 5 7 2 8 -6 3 -10 -6 -12 -4 -7 9 4 10 7 20 7 22 0 3 4 3 9 -1 5
-3 12 -1 16 5 3 5 1 10 -4 10 -16 0 -13 26 4 40 13 11 15 10 12 -1 -2 -8 -2
-11 0 -7 2 4 10 6 16 4 7 -1 9 -1 5 1 -18 10 -6 25 15 20 21 -6 21 -6 -3 13
-17 14 -20 20 -10 20 9 0 22 -6 29 -12 9 -8 11 -8 8 -2 -4 7 2 23 14 35 14 17
19 19 15 7 -3 -12 -1 -15 10 -11 17 6 0 34 -19 29 -7 -1 -9 -1 -4 1 4 3 5 8 2
13 -2 4 9 6 25 4 21 -3 28 0 24 10 -3 7 2 16 11 20 9 3 13 11 10 17 -6 9 26
50 40 49 3 0 5 2 5 5 0 3 0 10 0 16 0 5 -5 7 -12 3 -7 -4 -8 -3 -4 4 5 9 13 9
26 2 24 -13 30 -13 30 0 0 6 -7 10 -17 10 -25 0 -9 11 21 14 16 2 23 -1 19 -8
-3 -6 0 -5 8 2 7 6 17 12 22 12 4 0 5 -6 1 -12 -5 -10 -4 -10 6 -1 9 8 20 9
38 2 14 -5 33 -7 41 -3 12 5 8 9 -14 14 -25 6 -20 8 25 9 38 1 50 4 40 10 -8
6 -18 7 -22 5 -4 -3 -8 1 -8 8 0 8 -3 9 -8 3 -4 -5 -16 -12 -26 -13 -16 -3
-18 -1 -8 10 10 12 5 14 -34 13 -24 -1 -43 0 -40 2 3 3 0 16 -5 30 -7 20 -5
30 16 55 23 27 32 48 20 48 -3 0 -5 -4 -5 -8z m17 -158 c-3 -3 -12 -4 -19 -1
-8 3 -5 6 6 6 11 1 17 -2 13 -5z m-394 -411 c-3 -7 -6 -13 -8 -13 -2 0 -5 6
-8 13 -3 8 1 14 8 14 7 0 11 -6 8 -14z"/>
<path d="M2920 3510 c0 -59 -65 -93 -104 -54 -19 18 -20 14 -5 -20 7 -14 16
-23 20 -20 5 3 9 1 9 -4 0 -20 35 -7 66 25 35 34 41 57 24 83 -8 12 -10 10
-10 -10z"/>
<path d="M2716 3391 c-21 -23 -11 -51 20 -51 26 0 47 30 38 54 -8 22 -37 20
-58 -3z"/>
<path d="M2572 3375 c10 -23 38 -24 38 -1 0 6 5 3 11 -6 5 -10 16 -15 24 -12
9 4 15 0 15 -10 0 -9 5 -16 11 -16 5 0 8 -4 5 -8 -6 -11 64 -46 84 -43 46 8
103 121 61 121 -5 0 -12 -15 -15 -34 -12 -63 -71 -80 -113 -32 -23 27 -31 52
-13 41 6 -3 10 0 10 7 0 9 -19 13 -64 15 -64 1 -65 1 -54 -22z"/>
<path d="M3098 3363 c7 -3 16 -2 19 1 4 3 -2 6 -13 5 -11 0 -14 -3 -6 -6z"/>
<path d="M1940 3278 c-12 -22 -12 -22 6 -6 10 10 15 20 12 24 -4 3 -12 -5 -18
-18z"/>
<path d="M2268 3273 c7 -3 16 -2 19 1 4 3 -2 6 -13 5 -11 0 -14 -3 -6 -6z"/>
<path d="M2606 3264 c-5 -12 -15 -15 -41 -12 -19 2 -35 1 -35 -3 0 -6 -42 -1
-135 16 l-40 8 25 -21 c17 -14 29 -17 37 -10 17 13 33 1 33 -25 0 -14 3 -18 8
-10 13 21 59 7 103 -31 51 -43 85 -46 116 -9 25 29 28 40 13 63 -9 13 -10 13
-10 -1 0 -8 -9 -25 -21 -38 -28 -29 -76 -25 -98 9 -15 23 -15 24 4 15 53 -22
103 4 79 42 -15 24 -30 27 -38 7z"/>
<path d="M3554 3248 l-19 -23 23 19 c21 18 27 26 19 26 -2 0 -12 -10 -23 -22z"/>
<path d="M1895 3200 c-4 -12 -5 -24 -2 -27 3 -2 8 5 12 17 4 12 5 24 2 27 -3
2 -8 -5 -12 -17z"/>
<path d="M2843 3103 c-47 -44 -60 -87 -43 -138 13 -38 33 -45 62 -19 13 12 21
14 31 6 14 -12 31 -5 39 19 4 9 27 21 52 28 48 12 61 35 25 44 l-21 6 23 30
c12 17 21 33 18 35 -2 3 -32 -9 -65 -25 -33 -16 -71 -31 -85 -33 -14 -1 -30
-6 -37 -10 -26 -16 -10 12 23 41 33 30 45 53 27 53 -5 0 -27 -17 -49 -37z"/>
<path d="M2910 3123 c0 -6 -12 -23 -27 -38 -16 -15 -22 -26 -14 -23 20 6 56
56 48 65 -4 3 -7 2 -7 -4z"/>
<path d="M1827 3087 l-19 -32 26 24 c14 13 23 28 20 32 -7 12 -7 13 -27 -24z"/>
<path d="M2453 3073 c-24 -33 -20 -53 11 -53 28 0 46 18 46 46 0 17 -17 34
-34 34 -1 0 -11 -12 -23 -27z"/>
<path d="M3527 3036 c-32 -35 -67 -77 -80 -92 -34 -45 -41 -51 -55 -46 -7 2
-12 -6 -13 -20 0 -25 -38 -121 -38 -101 -1 8 -11 4 -26 -9 -14 -12 -32 -23
-41 -24 -19 -3 -124 -75 -124 -85 0 -4 -10 -11 -22 -15 -13 -4 -29 -15 -36
-25 -7 -11 -19 -19 -27 -19 -8 0 -17 -4 -20 -10 -3 -6 1 -7 12 -4 10 3 6 -2
-8 -10 -14 -8 -39 -32 -55 -53 -16 -21 -54 -65 -85 -99 -31 -33 -78 -93 -104
-132 -57 -87 -218 -253 -260 -268 l-31 -11 16 71 c8 39 19 78 24 86 6 10 3 9
-11 -3 -13 -11 -23 -36 -27 -69 -12 -89 -27 -112 -103 -155 -109 -63 -107 -63
-97 4 5 32 8 78 7 102 0 29 2 39 8 30 6 -9 7 2 3 29 -4 26 -3 42 4 42 5 0 13
8 16 17 6 15 4 15 -14 -2 -23 -21 -34 -57 -50 -170 -16 -111 -22 -122 -71
-135 -22 -6 -48 -9 -56 -6 -8 3 -11 2 -8 -4 3 -5 -3 -9 -12 -9 -10 1 -44 -7
-77 -16 -32 -9 -64 -14 -72 -11 -7 3 -16 1 -19 -4 -3 -5 -13 -9 -23 -9 -9 0
-36 -3 -59 -7 -30 -5 -48 -3 -60 7 -9 8 -14 9 -10 2 4 -7 0 -14 -10 -17 -24
-6 -346 -6 -356 1 -5 3 -28 6 -52 7 l-43 2 40 -42 c55 -58 153 -103 258 -119
120 -19 320 -25 320 -11 0 13 144 103 192 120 18 6 38 14 44 18 6 4 48 -12 95
-35 110 -55 112 -68 24 -122 -104 -63 -166 -110 -150 -113 7 -2 23 6 33 16 11
11 48 36 83 57 35 20 76 48 92 61 32 27 56 30 77 12 12 -11 12 -10 1 5 -12 15
-11 20 3 36 24 26 210 151 226 151 24 0 200 -95 200 -107 0 -8 12 -13 29 -13
19 0 54 19 107 58 44 32 91 67 107 76 23 16 38 46 22 46 -9 0 -52 -29 -147
-98 l-88 -64 -105 57 c-59 31 -104 62 -102 68 3 11 160 127 218 161 25 15 29
14 74 -10 26 -13 49 -23 51 -21 2 1 -12 11 -31 22 -19 10 -35 24 -35 31 0 14
93 86 167 130 l42 25 93 -48 c122 -63 124 -75 28 -134 -40 -24 -85 -55 -101
-68 -18 -14 -37 -21 -49 -18 -13 3 -20 0 -20 -9 0 -13 18 -19 48 -15 25 4 195
125 200 143 3 12 14 18 31 18 29 0 194 112 199 136 2 8 14 14 26 14 28 0 207
126 213 150 3 10 18 20 34 24 30 6 124 65 170 107 14 13 41 32 60 41 75 39
173 118 145 118 -3 0 -42 -22 -87 -49 -84 -51 -93 -52 -139 -21 -14 10 -49 29
-78 44 -29 15 -50 31 -47 36 4 6 34 29 68 52 76 50 72 47 65 53 -3 4 -40 -15
-82 -40 -60 -37 -81 -45 -99 -38 -46 17 -147 74 -147 82 0 5 27 26 60 46 41
25 60 43 60 56 0 20 0 20 -27 1 -16 -11 -51 -33 -78 -49 -50 -29 -50 -29 -80
-11 -17 10 -24 18 -16 18 8 0 11 6 7 15 -3 8 0 15 6 15 6 0 9 3 5 6 -3 4 0 12
7 20 17 16 30 97 21 125 -6 19 -11 14 -39 -34 -43 -76 -74 -99 -126 -93 -38 4
-40 3 -34 -20 5 -19 3 -23 -10 -18 -9 3 -16 14 -16 23 0 10 -3 20 -6 24 -10 9
-32 -17 -27 -31 3 -7 2 -12 -3 -10 -5 2 -9 -1 -9 -7 0 -5 6 -8 15 -7 18 5 12
-1 -16 -16 -27 -14 -26 7 6 68 12 25 22 46 21 48 -1 2 22 31 50 65 80 94 82
97 78 97 -2 0 -30 -29 -62 -64z m31 -174 c12 10 14 10 8 1 -4 -7 -15 -17 -26
-23 -15 -8 -17 -7 -12 12 3 13 7 17 10 10 3 -10 7 -10 20 0z m66 -104 c-4 -6
-1 -8 7 -6 8 3 13 11 11 17 -1 7 2 10 7 6 17 -10 3 -29 -42 -55 -60 -36 -67
-37 -26 -4 20 17 35 37 33 47 -1 9 2 15 7 11 5 -3 6 -10 3 -16z m154 -53 c82
-41 93 -53 66 -72 -36 -26 -136 -83 -146 -83 -14 0 -167 74 -167 80 0 10 144
110 160 110 8 0 47 -16 87 -35z m227 -110 c101 -46 100 -58 -10 -131 -46 -31
-88 -54 -92 -52 -21 9 -160 94 -171 105 -13 13 -8 17 99 88 62 41 64 41 174
-10z m-565 21 c0 -2 -12 -11 -27 -20 l-28 -17 24 20 c23 21 31 25 31 17z m138
-46 c45 -21 82 -44 82 -50 0 -12 -160 -118 -202 -134 -23 -8 -33 -6 -59 13
-18 13 -28 17 -23 10 4 -8 -12 3 -36 24 -24 20 -48 37 -54 37 -6 0 1 8 15 18
15 9 46 30 70 46 24 16 57 40 72 52 16 13 34 24 41 24 7 0 49 -18 94 -40z
m212 -108 c67 -38 84 -52 82 -67 -2 -11 -5 -20 -5 -21 -1 0 -48 -33 -105 -73
l-103 -72 -44 28 c-24 15 -66 40 -94 55 -28 16 -51 32 -51 38 0 5 10 16 23 25
143 101 194 135 202 135 5 0 48 -22 95 -48z m-466 -62 c48 -22 84 -45 81 -50
-3 -5 -38 -30 -78 -56 -40 -25 -81 -55 -92 -65 -20 -18 -22 -18 -58 1 -53 29
-118 77 -117 87 1 6 122 90 176 122 1 1 40 -17 88 -39z m306 -178 c-1 -10 -38
-41 -98 -80 -85 -56 -99 -62 -117 -51 -11 7 -55 33 -98 57 -43 25 -76 50 -74
56 1 6 45 39 95 73 l93 63 99 -50 c70 -35 100 -55 100 -68z m-533 22 c40 -19
73 -39 73 -44 0 -12 -11 -22 -110 -88 l-85 -57 -33 20 c-18 11 -53 37 -77 57
l-44 36 42 25 c23 14 44 24 47 23 3 0 23 14 45 32 22 17 46 32 54 32 8 0 48
-16 88 -36z m-169 -199 c2 -16 -19 -35 -95 -85 -54 -36 -106 -73 -116 -83 -16
-16 -19 -16 -65 15 -26 17 -57 43 -69 59 l-23 27 78 46 c42 25 93 60 112 78
l35 33 70 -35 c48 -24 71 -41 73 -55z m-333 -152 c41 -20 75 -39 75 -42 -1
-14 -20 -31 -95 -80 -44 -29 -92 -64 -106 -78 l-27 -25 -63 43 c-94 62 -101
70 -88 86 7 7 33 25 60 40 27 14 49 30 49 35 0 4 5 8 11 8 5 0 27 11 47 25 20
14 43 25 50 25 7 0 46 -17 87 -37z m-671 -205 c22 -13 43 -24 45 -26 3 -1 -2
-8 -10 -15 -11 -10 -21 -6 -53 25 -46 44 -41 47 18 16z"/>
<path d="M2736 3081 c-4 -5 -2 -12 3 -15 5 -4 12 -2 15 3 4 5 2 12 -3 15 -5 4
-12 2 -15 -3z"/>
<path d="M2710 3071 c0 -6 4 -13 10 -16 6 -3 7 1 4 9 -7 18 -14 21 -14 7z"/>
<path d="M2245 3060 c3 -5 12 -7 20 -3 21 7 19 13 -6 13 -11 0 -18 -4 -14 -10z"/>
<path d="M2380 3059 c0 -5 -18 -6 -40 -3 -36 6 -40 4 -40 -14 0 -18 5 -19 40
-15 34 5 44 1 75 -26 45 -40 84 -41 125 -3 28 25 29 29 15 52 -13 23 -14 23
-15 5 0 -37 -28 -65 -64 -65 -36 0 -72 30 -63 54 3 8 -2 16 -14 19 -10 3 -19
1 -19 -4z"/>
<path d="M2763 3021 c-5 -13 -9 -31 -8 -40 3 -33 17 -81 23 -82 4 0 17 -2 30
-5 12 -2 22 1 22 6 0 6 -4 10 -10 10 -14 0 -31 37 -39 89 -7 42 -9 44 -18 22z"/>
<path d="M2963 2980 c-13 -5 -23 -15 -23 -22 0 -8 3 -9 8 -3 4 6 18 16 32 22
29 14 15 16 -17 3z"/>
<path d="M3525 2960 c-3 -5 -1 -10 4 -10 6 0 11 5 11 10 0 6 -2 10 -4 10 -3 0
-8 -4 -11 -10z"/>
<path d="M1693 2928 c-37 -42 -37 -54 0 -19 21 19 37 36 37 38 0 10 -19 0 -37
-19z"/>
<path d="M2857 2927 c-25 -25 -16 -31 22 -15 28 12 30 14 14 24 -14 8 -22 6
-36 -9z"/>
<path d="M3555 2911 c-3 -5 -2 -12 3 -15 5 -3 9 1 9 9 0 17 -3 19 -12 6z"/>
<path d="M3518 2903 c7 -3 16 -2 19 1 4 3 -2 6 -13 5 -11 0 -14 -3 -6 -6z"/>
<path d="M2295 2850 c-25 -26 -27 -32 -15 -44 22 -20 60 -3 60 26 0 45 -14 50
-45 18z"/>
<path d="M3205 2837 c-111 -67 -156 -101 -215 -163 l-55 -58 70 63 c39 35 109
89 157 120 47 31 95 61 105 68 10 6 16 12 13 12 -3 0 -36 -18 -75 -42z"/>
<path d="M2137 2820 c4 -14 9 -17 17 -11 17 14 64 1 84 -24 21 -26 54 -45 80
-45 26 0 72 47 72 74 0 18 -3 16 -20 -11 -35 -58 -110 -53 -133 7 -12 31 -21
37 -32 20 -4 -7 -12 -7 -25 0 -31 17 -49 12 -43 -10z"/>
<path d="M3276 2758 c3 -5 10 -6 15 -3 13 9 11 12 -6 12 -8 0 -12 -4 -9 -9z"/>
<path d="M2080 2717 c0 -8 7 -17 15 -21 8 -3 15 -2 15 3 0 5 -7 14 -15 21 -12
10 -15 10 -15 -3z"/>
<path d="M2175 2690 c2 -12 -5 -29 -18 -41 -18 -17 -20 -21 -7 -29 20 -13 31
-12 28 1 -2 6 3 14 11 17 9 3 11 0 6 -8 -5 -9 -4 -11 3 -6 15 9 15 41 2 67
-14 25 -30 25 -25 -1z"/>
<path d="M2135 2670 c3 -5 8 -10 11 -10 2 0 4 5 4 10 0 6 -5 10 -11 10 -5 0
-7 -4 -4 -10z"/>
<path d="M2241 2639 c-1 -30 -18 -47 -58 -59 l-28 -8 31 -1 c40 -1 67 28 61
66 -4 28 -4 28 -6 2z"/>
<path d="M2880 2563 c-23 -27 -46 -57 -52 -68 -5 -11 1 -6 14 10 13 17 38 47
57 68 18 20 31 37 28 37 -3 0 -24 -21 -47 -47z"/>
<path d="M2744 2558 l-19 -23 23 19 c12 11 22 21 22 23 0 8 -8 2 -26 -19z"/>
<path d="M2770 2418 c-19 -24 -26 -37 -17 -29 19 15 61 71 54 71 -2 0 -19 -19
-37 -42z"/>
<path d="M2714 2348 l-19 -23 23 19 c12 11 22 21 22 23 0 8 -8 2 -26 -19z"/>
<path d="M2674 2298 l-19 -23 23 19 c12 11 22 21 22 23 0 8 -8 2 -26 -19z"/>
<path d="M2619 2233 c-13 -16 -12 -17 4 -4 16 13 21 21 13 21 -2 0 -10 -8 -17
-17z"/>
<path d="M4506 2175 c-27 -14 -57 -32 -66 -40 -9 -8 -23 -15 -31 -15 -18 0
-68 -25 -129 -65 -61 -40 -80 -51 -117 -71 -18 -10 -33 -21 -33 -26 0 -4 -8
-8 -17 -8 -10 0 -29 -7 -43 -15 -14 -7 -40 -21 -57 -29 -18 -8 -33 -19 -33
-24 0 -6 -12 -13 -27 -17 -15 -3 -39 -17 -54 -29 -15 -13 -48 -33 -73 -46 -25
-12 -48 -26 -52 -31 -3 -5 -13 -9 -22 -9 -10 0 -25 -8 -34 -17 -26 -28 -46
-43 -57 -43 -5 0 -19 -12 -30 -26 -11 -14 -26 -24 -33 -22 -7 1 -29 -9 -49
-25 -20 -15 -42 -27 -49 -27 -15 0 -60 -46 -60 -62 0 -7 -15 -9 -39 -5 -33 4
-40 2 -44 -14 -3 -11 -11 -18 -19 -17 -7 2 -12 -3 -10 -11 2 -9 -3 -11 -13 -7
-9 3 -13 2 -10 -4 9 -15 -87 -71 -101 -59 -8 7 -14 6 -19 -1 -3 -5 -2 -10 3
-10 6 0 5 -10 -1 -24 -11 -23 -13 -23 -29 -9 -16 14 -18 14 -24 -1 -3 -9 -10
-14 -14 -11 -5 3 -11 1 -15 -4 -3 -5 -18 -16 -34 -24 -22 -11 -32 -12 -41 -3
-9 8 -11 8 -8 -3 3 -15 -67 -60 -95 -61 -10 0 -36 -14 -57 -31 -23 -18 -43
-28 -51 -24 -6 4 -21 9 -33 9 -11 1 -20 8 -18 15 1 7 -2 9 -8 6 -8 -5 -6 -13
6 -26 13 -15 19 -16 25 -7 5 8 7 1 6 -16 -3 -37 -17 -42 -47 -16 -13 11 -24
20 -26 20 -1 0 -1 -16 2 -35 4 -34 4 -34 -23 -24 -24 9 -29 7 -51 -21 -13 -17
-29 -30 -35 -29 -23 3 -77 -14 -71 -22 3 -5 7 -18 9 -28 3 -14 -1 -18 -11 -14
-8 3 -14 -1 -14 -8 -1 -9 -4 -8 -11 4 -8 14 -14 15 -30 6 -12 -6 -23 -8 -26
-6 -7 8 36 29 46 23 10 -7 33 18 25 27 -3 3 4 10 15 17 12 6 21 8 21 4 0 -4 9
1 20 11 10 9 26 15 34 12 14 -6 17 16 3 29 -8 8 -107 -64 -107 -77 0 -6 -3 -8
-7 -6 -5 3 -23 -5 -41 -18 -25 -17 -29 -24 -17 -28 8 -4 15 -12 15 -19 0 -9
-3 -8 -10 2 -8 12 -10 12 -10 -5 0 -17 -2 -17 -10 -5 -6 10 -10 -65 -10 -222
0 -191 3 -238 13 -238 7 0 31 15 53 33 63 54 688 507 851 617 22 15 840 600
1008 721 50 36 128 92 175 124 47 32 88 63 92 69 4 6 8 35 8 64 l0 52 -37 -1
c-21 0 -60 -11 -87 -24z"/>
<path d="M900 2170 c-9 -6 -10 -10 -3 -10 6 0 15 5 18 10 8 12 4 12 -15 0z"/>
<path d="M2176 2105 c-22 -8 -42 -14 -45 -13 -18 2 -32 -3 -27 -10 3 -4 -10
-9 -29 -9 -18 -1 -73 -10 -122 -21 -48 -12 -142 -26 -208 -32 -66 -6 -145 -15
-175 -19 l-55 -8 60 -4 c57 -3 56 -3 -30 -10 -59 -4 -19 -6 115 -4 194 3 210
4 305 33 55 16 128 40 163 53 53 20 66 21 85 11 l22 -13 -21 19 c-20 17 -20
19 -5 30 21 15 14 14 -33 -3z"/>
<path d="M2141 2031 c-7 -5 -10 -14 -7 -20 4 -6 0 -11 -9 -11 -9 0 -14 4 -11
9 7 11 -21 8 -31 -4 -4 -4 -2 -5 6 0 10 5 12 4 7 -3 -5 -9 -13 -9 -28 -1 -18
10 -20 9 -15 -5 5 -13 3 -15 -12 -7 -13 8 -28 5 -56 -9 -23 -12 -49 -17 -69
-14 -24 3 -26 2 -11 -4 16 -7 8 -11 -37 -16 -31 -4 -74 -5 -95 -2 -30 4 -33 4
-13 -3 22 -8 20 -9 -17 -10 -41 -1 -55 -12 -33 -26 12 -7 4 -25 -11 -25 -6 0
-7 5 -3 12 4 7 3 8 -5 4 -8 -5 -10 0 -7 18 4 24 2 25 -35 22 -22 -2 -43 -7
-47 -11 -4 -5 -2 -5 5 -1 6 3 14 2 17 -2 3 -5 18 -7 33 -5 21 3 24 2 13 -6 -8
-5 -19 -7 -25 -3 -5 3 -4 -2 4 -11 8 -10 11 -20 8 -23 -3 -3 -10 4 -17 15 -6
12 -16 21 -22 21 -6 0 -8 -3 -5 -7 4 -3 0 -15 -10 -25 -9 -10 -13 -21 -10 -25
4 -4 14 2 21 13 14 18 16 18 33 2 15 -16 16 -18 1 -18 -9 0 -18 5 -20 12 -3 7
-7 5 -11 -6 -4 -10 -3 -15 3 -11 13 8 13 -1 -1 -27 -8 -15 -8 -19 0 -14 6 4
11 2 11 -3 0 -16 23 -13 46 4 16 13 16 14 2 9 -39 -13 -15 14 35 39 28 15 42
25 30 21 -13 -3 -23 -1 -23 5 0 6 5 11 12 11 6 0 3 7 -8 15 -18 14 -16 15 21
14 37 -1 64 2 150 17 23 4 26 3 15 -5 -13 -9 -13 -11 3 -11 9 0 17 5 17 12 0
6 3 9 6 6 3 -4 21 0 39 8 19 8 36 10 40 5 3 -5 0 -12 -5 -14 -6 -3 -5 -4 2 -2
7 1 12 7 11 14 -4 17 48 26 58 10 4 -8 4 -16 -2 -20 -7 -4 -4 -9 6 -12 9 -4
14 -3 10 2 -3 5 1 12 7 14 10 4 10 6 1 6 -20 1 -15 31 5 31 11 0 13 -3 6 -8
-9 -5 -8 -11 3 -21 12 -11 14 -11 12 0 -4 31 3 39 41 50 22 7 46 19 52 28 10
13 10 14 -2 4 -15 -14 -34 -18 -26 -5 6 11 -36 13 -53 3z m29 -11 c-20 -13
-33 -13 -25 0 3 6 14 10 23 10 15 0 15 -2 2 -10z m-459 -150 c9 0 7 -5 -6 -12
-58 -31 -68 -40 -54 -49 9 -6 10 -9 2 -9 -22 0 -26 23 -6 39 12 9 20 26 18 39
-1 20 0 21 15 7 9 -8 23 -15 31 -15z"/>
<path d="M1388 1983 c6 -2 18 -2 25 0 6 3 1 5 -13 5 -14 0 -19 -2 -12 -5z"/>
<path d="M1818 1953 c6 -2 18 -2 25 0 6 3 1 5 -13 5 -14 0 -19 -2 -12 -5z"/>
<path d="M2143 1945 c0 -8 3 -13 5 -10 3 3 12 -1 21 -7 10 -8 9 -4 -3 10 -23
26 -23 26 -23 7z"/>
<path d="M2185 1940 c10 -11 20 -20 23 -20 3 0 -3 9 -13 20 -10 11 -20 20 -23
20 -3 0 3 -9 13 -20z"/>
<path d="M1980 1933 c0 -6 8 -17 18 -24 16 -13 16 -13 2 6 -8 11 -16 22 -17
24 -2 2 -3 0 -3 -6z"/>
<path d="M1950 1920 c-13 -8 -12 -10 3 -10 9 0 17 -5 17 -11 0 -5 -4 -8 -9 -5
-5 3 -13 0 -19 -7 -8 -10 -6 -13 9 -13 10 0 19 5 19 11 0 5 5 3 10 -5 14 -22
12 1 -3 27 -9 16 -16 20 -27 13z"/>
<path d="M1574 1911 c5 -7 -3 -12 -21 -12 -24 -2 -25 -2 -5 -6 12 -2 20 -8 17
-13 -7 -12 23 -6 36 7 8 8 5 14 -11 23 -15 8 -20 8 -16 1z"/>
<path d="M1835 1910 c-3 -5 -3 -10 2 -10 4 -1 -4 -8 -20 -16 -15 -8 -31 -13
-36 -10 -4 3 -8 -1 -8 -9 0 -12 4 -12 27 0 21 11 30 11 39 2 10 -9 11 -8 6 6
-8 19 10 24 18 5 4 -10 6 -10 6 0 1 7 -6 15 -14 18 -8 4 -12 10 -9 15 3 5 3 9
0 9 -3 0 -8 -4 -11 -10z"/>
<path d="M1872 1913 c10 -2 15 -10 11 -19 -7 -18 8 -18 33 1 14 11 15 14 3 9
-10 -3 -20 -1 -24 5 -3 6 -14 10 -23 10 -16 -1 -16 -2 0 -6z"/>
<path d="M2055 1910 c-3 -6 1 -7 9 -4 18 7 21 14 7 14 -6 0 -13 -4 -16 -10z"/>
<path d="M1750 1899 c0 -11 37 -12 43 -1 3 4 -6 8 -19 8 -13 1 -24 -2 -24 -7z"/>
<path d="M1418 1893 c6 -2 10 -8 8 -12 -3 -4 0 -8 7 -8 7 0 18 -2 26 -4 7 -2
15 4 16 14 3 15 1 16 -11 6 -11 -9 -18 -9 -26 -1 -7 7 -17 12 -22 11 -6 0 -5
-3 2 -6z"/>
<path d="M1504 1891 c4 -5 -3 -19 -15 -30 l-22 -20 32 4 c21 3 29 1 25 -7 -5
-7 -3 -8 5 -4 7 5 10 15 6 23 -5 14 -3 14 11 2 15 -12 14 -15 -6 -31 -16 -13
-27 -15 -40 -8 -13 7 -21 5 -30 -5 -7 -8 -11 -15 -9 -16 31 -6 38 -6 34 2 -6
9 46 6 63 -4 5 -4 12 -1 15 7 4 10 0 12 -15 8 -13 -3 -19 -1 -15 5 9 14 47 24
47 12 0 -5 5 -9 10 -9 19 0 10 17 -17 31 -16 8 -30 16 -33 19 -12 12 -51 30
-46 21z m7 -34 c-10 -9 -11 -8 -5 6 3 10 9 15 12 12 3 -3 0 -11 -7 -18z"/>
<path d="M2075 1890 c-4 -6 -11 -7 -17 -4 -7 4 -8 2 -4 -5 6 -9 11 -9 22 0 14
11 18 19 10 19 -3 0 -8 -5 -11 -10z"/>
<path d="M1430 1856 c0 -2 8 -10 18 -17 15 -13 16 -12 3 4 -13 16 -21 21 -21
13z"/>
<path d="M1739 1843 c-7 -10 -10 -15 -5 -11 5 4 17 3 27 -2 12 -7 20 -7 24 0
4 6 3 10 -2 9 -20 -3 -34 2 -28 11 10 17 -2 11 -16 -7z"/>
<path d="M1824 1845 c1 -8 8 -21 16 -28 12 -10 12 -9 2 4 -6 9 -9 18 -6 21 3
3 1 9 -4 12 -6 3 -9 -1 -8 -9z"/>
<path d="M1896 1847 c3 -10 9 -15 12 -12 3 3 0 11 -7 18 -10 9 -11 8 -5 -6z"/>
<path d="M1930 1850 c-8 -5 -10 -10 -5 -11 6 0 18 -2 28 -4 15 -3 16 -1 6 11
-14 16 -10 16 -29 4z"/>
<path d="M1725 1809 c-11 -16 -1 -19 13 -3 7 8 8 14 3 14 -5 0 -13 -5 -16 -11z"/>
<path d="M3550 1790 c-9 -6 -10 -10 -3 -10 6 0 15 5 18 10 8 12 4 12 -15 0z"/>
<path d="M2774 1620 c-98 -66 -120 -77 -136 -69 -23 13 -39 2 -18 -11 30 -19
75 -10 130 28 111 75 160 114 154 123 -3 5 -7 9 -9 9 -2 0 -56 -36 -121 -80z"/>
<path d="M3369 1663 c-13 -16 -12 -17 4 -4 16 13 21 21 13 21 -2 0 -10 -8 -17
-17z"/>
<path d="M3339 1648 c-5 -18 -6 -38 -1 -34 7 8 12 36 6 36 -2 0 -4 -1 -5 -2z"/>
<path d="M1980 1596 c0 -2 7 -7 16 -10 8 -3 12 -2 9 4 -6 10 -25 14 -25 6z"/>
<path d="M2501 1450 c-57 -38 -109 -70 -115 -71 -6 0 -1 -5 12 -11 19 -10 32
-5 94 38 87 59 128 93 128 105 0 17 -16 9 -119 -61z"/>
<path d="M3019 1378 c7 -9 9 -23 5 -30 -6 -10 -4 -11 7 0 11 10 10 15 -6 30
-17 15 -18 15 -6 0z"/>
<path d="M3060 1361 c0 -6 4 -13 10 -16 6 -3 7 1 4 9 -7 18 -14 21 -14 7z"/>
<path d="M2832 1250 c13 -20 28 -27 28 -12 0 4 -9 13 -20 20 -19 12 -20 11 -8
-8z"/>
<path d="M2706 1201 c-4 -5 2 -7 12 -4 10 2 28 -5 41 -16 13 -12 27 -21 30
-21 3 0 -7 12 -22 25 -29 26 -52 32 -61 16z"/>
<path d="M2666 1171 c-3 -4 4 -7 14 -6 27 2 33 10 10 12 -11 1 -22 -2 -24 -6z"/>
<path d="M2525 1030 c-3 -6 1 -7 9 -4 18 7 21 14 7 14 -6 0 -13 -4 -16 -10z"/>
</g>
</svg>
